<?xml version="1.0" encoding="utf-8"?>
<svg version="1.0" width="1417.8469" height="2411.7231" viewBox="0 0 1417.8469 2411.7231" id="svg2" xmlns="http://www.w3.org/2000/svg" xmlns:bx="https://boxy-svg.com">
  <g style="display: none;" id="Hilfslinien_anzeigen"/>
  <path style="fill:none;stroke:#646464;stroke-width:4.67719976;stroke-linecap:butt;stroke-linejoin:round;stroke-opacity:1;color:#000000;stroke-miterlimit:3.86368989999999979;stroke-dasharray:none;stroke-dashoffset:0;marker:none;visibility:visible;display:inline;overflow:visible;enable-background:accumulate" d="m 465.17642,2150.6824 12.64557,-19.8716" id="path5153" transform="translate(0,-2.0000943e-6)"/>
  <path style="color:#000000;fill:none;stroke:#646464;stroke-width:4.67719984;stroke-linecap:butt;stroke-linejoin:round;stroke-miterlimit:3.8636899;stroke-opacity:1;stroke-dasharray:none;stroke-dashoffset:0;marker:none;visibility:visible;display:inline;overflow:visible;enable-background:accumulate" d="m 464.82368,2303.0269 20.65344,-2.2395 13.18834,0.2489 16.92089,1.7418 1.99069,0.7465 9.95346,-1.2442 5.97208,0.7465 18.66275,1.9907 10.69997,2.2396 8.70928,2.2395 6.46975,4.2302 3.23488,1.9907 8.70928,0.7465 22.51629,8.2489" id="path4549"/>
  <path style="stroke: rgb(0, 0, 0); fill-opacity: 1; fill: rgb(154, 245, 17);" d="M 825.39 1209.363 C 811.546 1201.725 783.858 1186.448 754.261 1155.419 C 724.663 1124.389 693.156 1077.605 677.403 1039.892 C 661.649 1002.179 661.649 973.537 664.513 952.532 C 667.377 931.527 673.106 918.161 682.653 910.523 C 692.201 902.885 705.567 900.975 713.683 885.699 C 721.798 870.423 724.663 841.78 725.14 808.363 C 725.617 774.947 723.708 736.756 725.14 709.546 C 726.572 682.335 731.346 666.104 737.075 656.556 C 742.803 647.009 749.487 644.144 756.647 643.667 C 763.808 643.19 771.446 645.099 777.175 648.441 C 782.903 651.783 786.722 656.556 793.883 662.762 C 801.043 668.968 811.546 676.607 822.526 679.471 C 833.505 682.335 844.963 680.426 854.033 677.561 C 863.103 674.697 869.787 670.878 878.38 667.536 C 886.972 664.195 897.475 661.33 906.545 660.376 C 915.615 659.421 923.253 660.375 931.846 662.762 C 940.439 665.149 949.986 668.968 958.579 673.742 C 967.172 678.516 974.81 684.244 975.287 692.36 C 975.765 700.475 969.081 710.978 961.443 718.138 C 953.805 725.299 945.212 729.118 940.916 735.324 C 936.619 741.53 936.619 750.123 935.187 758.716 C 933.755 767.309 930.891 775.901 931.369 784.972 C 931.846 794.042 935.665 803.589 940.439 811.228 C 945.212 818.866 950.941 824.594 965.262 834.142 C 979.583 843.69 1002.498 857.056 1020.161 866.127 C 1037.824 875.197 1050.236 879.97 1056.919 887.608 C 1063.603 895.246 1064.557 905.749 1072.673 916.728 C 1080.788 927.708 1096.065 939.166 1109.431 949.668 C 1122.798 960.17 1134.255 969.718 1137.597 978.788 C 1140.938 987.858 1136.164 996.451 1134.732 1005.044 C 1133.3 1013.637 1135.209 1022.229 1140.461 1029.39 C 1145.712 1036.551 1154.305 1042.279 1159.556 1048.008 C 1164.807 1053.737 1166.717 1059.465 1166.717 1066.626 C 1166.717 1073.787 1164.807 1082.379 1158.601 1094.314 C 1152.395 1106.248 1141.893 1121.525 1134.732 1132.982 C 1127.571 1144.439 1123.752 1152.077 1118.501 1159.238 C 1113.25 1166.398 1106.566 1173.082 1090.813 1180.72 C 1075.059 1188.358 1050.236 1196.95 1017.774 1204.111 C 985.312 1211.272 945.212 1217 914.182 1218.91 C 883.153 1220.82 861.193 1218.91 850.214 1217.956 C 839.234 1217.001 839.234 1217.001 839.234 1217.001 C 839.234 1217.001 839.234 1217.001 825.39 1209.363" id="pampaHumeda&quot; style=&quot;stroke: rgb(0, 0, 0); fill-opacity: 1; fill: rgb(154, 245, 17);" bx:d="M 839.234 1217.001 U 756.17 1171.172 U 661.649 1030.822 U 661.649 944.894 U 678.834 904.794 U 718.934 899.066 U 727.527 813.137 U 721.798 698.566 U 736.12 649.873 U 756.17 641.28 U 779.084 647.009 U 790.541 661.33 U 822.048 684.245 U 856.42 678.516 U 876.47 667.059 U 907.977 658.466 U 930.891 661.33 U 959.534 672.787 U 982.448 689.973 U 962.398 721.48 U 936.619 732.937 U 936.619 758.716 U 928.027 784.494 U 939.484 813.137 U 956.669 830.323 U 1025.412 870.423 U 1062.648 884.744 U 1065.512 916.251 U 1111.341 950.623 U 1145.712 979.265 U 1131.39 1005.044 U 1137.119 1030.822 U 1162.898 1048.008 U 1168.626 1065.194 U 1162.898 1090.972 U 1131.39 1136.801 U 1119.933 1159.715 U 1099.883 1179.765 U 1025.412 1205.543 U 905.112 1222.729 U 839.234 1217.001 U 839.234 1217.001 Z 1@2ab63885"/>
  <path style="fill: rgb(254, 254, 233); fill-rule: evenodd;" d="M 819.184 907.658 L 867.877 993.587" bx:d="M 819.184 907.658 U 867.877 993.587 1@5633c45e"/>
  <path style="fill: rgb(254, 254, 233); fill-rule: evenodd;" d="M 846.939 595.005 L 832.105 613.547" bx:d="M 846.939 595.005 U 832.105 613.547 1@18df21da"/>
  <path style="fill: rgb(3, 166, 60); fill-rule: evenodd; fill-opacity: 1;" d="M 745.574 643.833 C 746.192 640.742 747.429 634.562 745.266 627.454 C 743.102 620.346 737.54 612.311 731.359 602.113 C 725.178 591.915 718.379 579.553 711.58 563.483 C 704.781 547.414 697.983 527.635 693.038 512.184 C 688.094 496.732 685.003 485.606 680.986 474.172 C 676.968 462.737 672.024 450.994 670.169 439.559 C 668.315 428.125 669.551 416.999 672.332 407.728 C 675.114 398.457 679.44 391.041 682.222 383.315 C 685.003 375.589 686.239 367.554 687.475 359.21 C 688.711 350.866 689.948 342.213 690.257 333.251 C 690.566 324.289 689.948 315.017 690.875 306.673 C 691.802 298.329 694.275 290.913 699.219 283.496 C 704.164 276.079 711.58 268.662 721.16 261.245 C 730.74 253.828 742.484 246.411 750.21 239.612 C 757.936 232.813 761.644 226.633 763.19 216.743 C 764.735 206.854 764.117 193.257 763.19 176.26 C 762.263 159.263 761.026 138.866 761.335 122.178 C 761.644 105.49 763.499 92.511 764.735 84.167 C 765.971 75.823 766.589 72.114 773.388 70.569 C 780.187 69.024 793.166 69.642 804.91 74.278 C 816.653 78.913 827.161 87.566 835.196 98.073 C 843.231 108.581 848.793 120.942 858.373 132.686 C 867.953 144.429 881.551 155.555 891.131 162.972 C 900.711 170.388 906.273 174.097 910.291 178.114 C 914.308 182.132 916.781 186.458 923.889 191.094 C 930.997 195.729 942.74 200.674 951.703 202.837 C 960.665 205 966.845 204.382 976.734 209.327 C 986.624 214.271 1000.221 224.779 1013.51 233.741 C 1026.798 242.703 1039.778 250.12 1049.049 254.447 C 1058.32 258.773 1063.883 260.009 1071.818 262.681 C 1079.753 265.353 1090.06 269.462 1099.579 277.238 C 1109.097 285.013 1117.828 296.457 1119.164 305.219 C 1120.5 313.981 1114.442 320.062 1110.177 325.884 C 1105.912 331.706 1103.439 337.268 1100.349 341.904 C 1097.259 346.539 1093.55 350.248 1091.387 355.501 C 1089.224 360.755 1088.606 367.554 1086.443 374.353 C 1084.279 381.152 1080.571 387.95 1076.244 394.749 C 1071.917 401.548 1066.973 408.347 1064.191 413.601 C 1061.41 418.854 1060.792 422.563 1057.52 426.907 C 1054.248 431.252 1048.322 436.233 1045.85 444.268 C 1043.378 452.303 1044.359 463.392 1043.304 471.1 C 1042.25 478.807 1039.159 483.134 1036.26 485.124 C 1033.36 487.115 1030.652 486.77 1029.725 489.706 C 1028.798 492.642 1029.652 498.86 1029.462 507.994 C 1029.271 517.129 1028.034 529.181 1024.326 538.606 C 1020.617 548.032 1014.437 554.83 1010.419 561.011 C 1006.402 567.192 1004.547 572.754 1002.384 578.935 C 1000.221 585.116 997.748 591.915 997.748 597.478 C 997.748 603.04 1000.221 607.367 1000.221 612.62 C 1000.221 617.874 997.748 624.054 997.748 630.235 C 997.748 636.416 1000.221 642.597 999.603 649.705 C 998.985 656.813 995.276 664.848 991.568 671.956 C 987.86 679.064 984.151 685.244 979.207 685.862 C 974.262 686.48 968.081 681.536 960.973 676.9 C 953.865 672.264 945.831 667.938 938.414 665.156 C 930.997 662.375 924.198 661.139 918.844 660.512 C 913.491 659.885 909.582 659.866 904.638 660.575 C 899.693 661.284 893.713 662.72 887.632 664.583 C 881.551 666.447 875.37 668.737 867.753 671.519 C 860.136 674.3 851.083 677.572 843.366 679.099 C 835.65 680.626 829.269 680.408 822.471 678.454 C 815.672 676.5 808.454 672.81 802.583 668.793 C 796.711 664.775 792.185 660.43 787.75 656.731 C 783.314 653.031 778.969 649.977 771.852 648.45 C 764.735 646.923 754.845 646.923 749.901 646.923 C 744.956 646.923 744.956 646.923 744.956 646.923 C 744.956 646.923 744.956 646.923 745.574 643.833" id="chaco&quot; style=&quot;fill: rgb(3, 166, 60); fill-rule: evenodd; fill-opacity: 1;" bx:d="M 744.956 646.923 U 748.665 628.381 U 731.977 604.276 U 711.58 567.192 U 691.184 507.857 U 681.913 474.481 U 667.079 439.25 U 670.787 405.874 U 683.767 383.624 U 687.475 359.519 U 691.184 333.56 U 689.33 305.746 U 696.747 283.496 U 718.997 261.245 U 754.227 238.994 U 765.353 220.452 U 763.499 179.659 U 759.79 118.47 U 765.353 79.531 U 767.207 68.406 U 806.146 70.26 U 837.668 96.219 U 854.356 133.304 U 895.148 166.68 U 911.836 177.805 U 919.253 190.785 U 954.484 205.618 U 973.026 203.764 U 1013.819 235.286 U 1052.757 257.537 U 1069.446 261.245 U 1100.367 273.57 U 1126.558 307.9 U 1108.384 326.143 U 1100.967 342.831 U 1089.842 353.956 U 1087.988 374.353 U 1076.862 394.749 U 1062.028 415.146 U 1060.174 426.271 U 1042.397 441.214 U 1045.34 474.481 U 1036.069 487.46 U 1027.943 486.425 U 1030.507 505.077 U 1026.798 541.233 U 1008.256 561.629 U 1002.693 578.317 U 995.276 598.714 U 1002.693 611.693 U 995.276 630.235 U 1002.693 648.778 U 991.568 672.883 U 980.443 691.425 U 961.9 676.591 U 937.796 663.611 U 917.399 659.903 U 905.674 659.848 U 887.732 664.156 U 869.189 671.028 U 842.03 680.844 U 822.889 680.19 U 801.237 669.12 U 787.659 656.085 U 774.624 646.923 U 744.956 646.923 U 744.956 646.923 Z 1@5fe13b97"/>
  <path style="fill: rgb(247, 0, 16); fill-rule: evenodd; fill-opacity: 1;" d="M 668.224 446.598 C 664.088 447.572 655.815 449.518 648.03 451.221 C 640.244 452.925 632.944 454.384 620.779 455.844 C 608.613 457.304 591.582 458.764 580.876 457.304 C 570.17 455.844 565.791 451.465 559.221 447.085 C 552.652 442.705 543.893 438.326 533.674 432.973 C 523.455 427.62 511.777 421.294 502.774 414.968 C 493.772 408.642 487.445 402.316 482.336 396.233 C 477.226 390.151 473.334 384.311 471.144 378.472 C 468.954 372.633 468.468 366.793 470.171 363.144 C 471.874 359.494 475.767 358.034 476.254 351.221 C 476.74 344.409 473.821 332.243 471.631 323.241 C 469.441 314.239 467.981 308.399 467.981 302.317 C 467.981 296.234 469.441 289.908 470.903 285.807 C 472.366 281.706 473.83 279.83 475.862 279.037 C 477.894 278.243 480.493 278.532 479.627 276.222 C 478.76 273.912 474.429 269.002 471.541 265.393 C 468.653 261.783 467.209 259.472 469.23 254.707 C 471.252 249.943 476.738 242.723 484.037 236.511 C 491.335 230.3 500.445 225.095 510.861 220.548 C 521.276 216 532.997 212.108 542.214 198.233 C 551.432 184.357 558.145 160.497 558.684 146.492 C 559.223 132.486 553.586 128.335 552.232 124.743 C 550.877 121.151 553.803 118.117 556.133 114.579 C 558.463 111.041 560.195 106.998 563.083 104.399 C 565.971 101.8 570.014 100.645 572.613 97.613 C 575.212 94.581 576.367 89.671 580.266 85.917 C 584.164 82.163 590.806 79.564 595.138 75.521 C 599.469 71.478 601.491 65.992 602.501 61.949 C 603.512 57.906 603.512 55.307 606.111 55.018 C 608.71 54.729 613.908 56.751 617.662 58.917 C 621.416 61.082 623.727 63.393 626.326 65.992 C 628.925 68.591 631.812 71.478 634.556 72.922 C 637.299 74.366 639.898 74.366 647.695 74.366 C 655.492 74.366 668.487 74.366 677.006 75.377 C 685.525 76.387 689.567 78.409 692.455 79.853 C 695.343 81.296 697.075 82.163 698.953 83.462 C 700.83 84.762 702.851 86.494 704.151 88.516 C 705.45 90.537 706.028 92.848 707.616 95.447 C 709.204 98.046 711.803 100.933 712.814 104.11 C 713.825 107.286 713.247 110.752 713.969 113.351 C 714.691 115.95 716.713 117.682 717.868 120.57 C 719.023 123.458 719.311 127.501 720.322 127.212 C 721.333 126.924 723.065 122.303 723.932 118.549 C 724.798 114.795 724.798 111.907 726.386 108.009 C 727.975 104.11 731.151 99.201 733.028 95.447 C 734.906 91.693 735.483 89.094 736.927 85.051 C 738.371 81.008 740.681 75.521 743.136 72.633 C 745.59 69.745 748.189 69.457 752.376 69.457 C 756.564 69.457 762.339 69.745 764.361 72.633 C 766.382 75.521 764.65 81.008 763.495 88.516 C 762.339 96.025 761.762 105.554 761.762 119.127 C 761.762 132.699 762.339 150.315 762.773 165.764 C 763.206 181.214 763.494 194.497 763.35 203.594 C 763.206 212.69 762.628 217.6 761.185 222.509 C 759.741 227.418 757.43 232.328 749.778 239.403 C 742.125 246.478 729.13 255.718 719.889 263.371 C 710.648 271.023 705.162 277.088 701.407 282.43 C 697.653 287.773 695.632 292.393 694.043 297.736 C 692.455 303.078 691.3 309.143 690.578 316.073 C 689.856 323.004 689.568 330.801 689.279 337.876 C 688.99 344.951 688.701 351.304 687.835 357.802 C 686.968 364.299 685.525 370.941 683.792 376.861 C 682.059 382.781 680.038 387.979 678.305 393.321 C 676.572 398.664 675.129 404.15 673.829 409.493 C 672.53 414.835 671.374 420.033 671.154 426.031 C 670.933 432.029 671.646 438.827 672.003 442.226 C 672.36 445.625 672.36 445.625 672.36 445.625 C 672.36 445.625 672.36 445.625 668.224 446.598" id="NOA&quot; style=&quot;fill: rgb(247, 0, 16); fill-rule: evenodd; fill-opacity: 1;" bx:d="M 672.36 445.625 U 647.543 451.465 U 625.645 455.844 U 574.55 460.224 U 561.411 447.085 U 535.134 433.946 U 500.098 414.968 U 481.119 395.99 U 469.441 378.472 U 467.981 360.954 U 479.66 356.574 U 470.901 320.078 U 466.521 302.56 U 470.901 283.582 U 475.295 277.954 U 483.092 278.821 U 470.097 264.093 U 465.765 257.162 U 482.225 235.504 U 509.555 219.891 U 544.718 208.217 U 564.859 136.638 U 547.95 124.184 U 556.73 115.084 U 561.928 102.955 U 574.057 99.49 U 577.522 84.762 U 597.448 76.965 U 603.512 60.505 U 603.512 52.708 U 619.106 58.772 U 626.037 65.703 U 634.7 74.366 U 642.497 74.366 U 681.482 74.366 U 693.61 80.43 U 698.808 83.029 U 704.873 88.227 U 706.605 95.158 U 714.402 103.821 U 712.67 114.217 U 718.734 119.415 U 719.6 131.544 U 724.798 117.683 U 724.798 109.019 U 734.328 94.292 U 736.061 86.495 U 742.991 70.034 U 750.788 69.168 U 768.115 70.034 U 762.917 86.495 U 761.184 115.084 U 762.917 167.93 U 763.783 207.781 U 762.051 222.509 U 755.12 237.237 U 716.135 264.959 U 699.675 283.152 U 693.61 297.014 U 690.145 315.207 U 689.279 338.598 U 688.412 357.657 U 684.081 377.583 U 678.016 393.177 U 673.685 409.637 U 670.219 425.231 U 672.36 445.625 U 672.36 445.625 Z 1@c0c79e0a"/>
  <path style="fill: rgb(255, 200, 0); fill-rule: evenodd; fill-opacity: 0.9;" d="M 485.314 402.241 C 484.759 403.167 483.647 405.02 482.721 407.057 C 481.795 409.095 481.054 411.317 479.387 412.429 C 477.72 413.54 475.126 413.54 473.274 414.837 C 471.422 416.133 470.31 418.726 468.273 418.726 C 466.235 418.726 463.272 416.133 460.679 415.763 C 458.085 415.392 455.863 417.245 454.381 419.467 C 452.899 421.69 452.158 424.283 451.047 427.247 C 449.935 430.21 448.454 433.545 446.416 437.435 C 444.379 441.324 441.785 445.77 440.304 449.845 C 438.822 453.92 438.451 457.624 437.525 461.514 C 436.599 465.404 435.118 469.479 432.895 472.443 C 430.672 475.406 427.709 477.259 425.301 480.037 C 422.893 482.815 421.04 486.52 419.603 487.878 C 418.166 489.235 417.145 488.247 416.151 489.393 C 415.158 490.538 414.194 493.819 412.361 496.134 C 410.528 498.45 407.826 499.8 406.379 502.791 C 404.932 505.782 404.739 510.413 404.16 513.983 C 403.581 517.552 402.617 520.061 402.617 522.569 C 402.617 525.077 403.581 527.586 403.099 529.901 C 402.616 532.217 400.687 534.339 399.239 537.041 C 397.792 539.742 396.828 543.022 396.345 545.338 C 395.863 547.653 395.863 549.004 394.802 550.258 C 393.741 551.513 391.618 552.67 389.978 554.31 C 388.338 555.95 387.18 558.073 386.119 560.002 C 385.057 561.932 384.093 563.668 383.803 565.791 C 383.514 567.913 383.9 570.422 384.575 573.22 C 385.251 576.017 386.215 579.105 386.891 581.806 C 387.566 584.507 387.952 586.823 388.531 588.945 C 389.11 591.068 389.881 592.997 389.785 594.927 C 389.688 596.857 388.724 598.786 388.434 601.005 C 388.145 603.224 388.531 605.733 388.628 608.724 C 388.724 611.714 388.531 615.188 389.592 617.31 C 390.653 619.433 392.969 620.204 393.74 621.555 C 394.512 622.906 393.741 624.835 392.872 627.247 C 392.004 629.659 391.039 632.554 389.495 634.58 C 387.952 636.606 385.829 637.763 383.611 637.956 C 381.392 638.149 379.076 637.377 377.533 638.149 C 375.989 638.921 375.217 641.236 374.349 643.938 C 373.48 646.639 372.516 649.727 371.455 652.717 C 370.393 655.708 369.236 658.602 368.271 661.786 C 367.306 664.969 366.534 668.443 366.245 671.916 C 365.955 675.389 366.148 678.863 365.183 681.854 C 364.218 684.844 362.096 687.353 360.166 688.317 C 358.237 689.282 356.5 688.703 355.246 690.997 C 353.992 693.291 353.22 698.458 352.545 702.874 C 351.869 707.291 351.291 710.957 351.773 714.334 C 352.256 717.71 353.799 720.798 354.861 723.885 C 355.922 726.972 356.5 730.06 357.272 732.279 C 358.044 734.498 359.008 735.848 360.649 737.103 C 362.289 738.357 364.604 739.514 366.534 740.576 C 368.464 741.637 370.007 742.601 370.081 744.49 C 370.154 746.379 368.756 749.191 367.076 750.111 C 365.396 751.03 363.434 750.057 363.324 750.815 C 363.214 751.573 364.957 754.063 365.704 756.802 C 366.451 759.541 366.202 762.529 367.323 764.895 C 368.443 767.26 370.933 769.003 371.556 770.746 C 372.178 772.489 370.933 774.232 371.431 776.099 C 371.929 777.967 374.17 779.959 374.793 781.951 C 375.415 783.943 374.419 785.935 374.295 789.048 C 374.17 792.16 374.917 796.393 376.535 799.63 C 378.154 802.867 380.644 805.108 381.64 807.224 C 382.636 809.341 382.138 811.333 381.391 813.45 C 380.644 815.566 379.648 817.807 379.524 820.671 C 379.399 823.534 380.146 827.02 380.768 829.884 C 381.391 832.747 381.889 834.988 383.383 835.362 C 384.877 835.735 387.367 834.241 389.484 834.241 C 391.6 834.241 393.343 835.735 394.713 837.478 C 396.082 839.221 397.078 841.213 396.954 843.205 C 396.829 845.197 395.584 847.189 394.588 849.181 C 393.592 851.173 392.845 853.165 392.098 855.282 C 391.351 857.398 390.604 859.639 390.48 861.88 C 390.355 864.121 390.853 866.362 390.977 868.603 C 391.102 870.844 390.853 873.085 391.227 875.451 C 391.6 877.816 392.596 880.306 392.845 882.547 C 393.094 884.788 392.596 886.78 392.72 888.772 C 392.845 890.764 393.592 892.756 393.592 894.748 C 393.592 896.74 392.845 898.732 391.476 900.102 C 390.106 901.471 388.114 902.218 386.122 902.84 C 384.13 903.463 382.138 903.961 381.889 905.579 C 381.64 907.198 383.134 909.937 383.009 911.805 C 382.885 913.672 381.142 914.668 379.275 916.287 C 377.407 917.905 375.415 920.146 373.672 922.512 C 371.929 924.877 370.435 927.367 369.19 929.359 C 367.945 931.351 366.949 932.845 366.576 934.588 C 366.202 936.331 366.451 938.323 365.704 940.44 C 364.957 942.556 363.214 944.797 362.467 947.536 C 361.72 950.275 361.969 953.512 361.845 956.251 C 361.72 958.99 361.222 961.231 359.604 962.476 C 357.985 963.721 355.246 963.97 353.503 964.966 C 351.76 965.962 351.013 967.705 351.387 969.199 C 351.76 970.693 353.254 971.937 354.624 973.182 C 355.993 974.427 357.238 975.672 357.736 977.415 C 358.234 979.158 357.985 981.399 358.359 983.516 C 358.732 985.632 359.728 987.624 360.102 989.99 C 360.475 992.355 360.226 995.094 360.724 998.207 C 361.222 1001.319 362.467 1004.805 362.467 1007.364 C 362.467 1009.923 361.222 1011.556 360.455 1012.937 C 359.687 1014.319 359.398 1015.449 380.065 1016.878 C 400.732 1018.306 442.357 1020.033 466.718 1021.088 C 491.078 1022.143 498.176 1022.526 508.438 1022.622 C 518.7 1022.718 532.127 1022.527 544.116 1021.855 C 556.104 1021.184 566.654 1020.033 572.792 1019.266 C 578.93 1018.498 580.657 1018.115 582.095 1015.237 C 583.534 1012.36 584.685 1006.99 585.836 999.701 C 586.987 992.412 588.137 983.204 588.617 974.285 C 589.096 965.365 588.905 956.734 588.479 947.976 C 588.054 939.218 587.395 930.333 586.45 925.591 C 585.505 920.849 584.274 920.249 582.972 918.937 C 581.671 917.624 580.301 915.6 579.136 913.436 C 577.971 911.273 577.012 908.971 576.724 906.286 C 576.437 903.6 576.82 900.531 576.724 896.503 C 576.629 892.475 576.053 887.488 573.805 877.889 C 571.556 868.29 567.633 854.08 564.629 838.369 C 561.625 822.659 559.539 805.45 557.975 790.848 C 556.41 776.246 555.367 764.251 555.888 753.3 C 556.41 742.348 558.496 732.44 560.061 720.445 C 561.625 708.451 562.668 694.37 562.668 683.94 C 562.668 673.51 561.625 666.731 560.06 656.301 C 558.496 645.871 556.41 631.79 554.324 620.317 C 552.238 608.844 550.152 599.979 548.327 590.331 C 546.501 580.683 544.937 570.253 541.808 561.648 C 538.679 553.043 533.985 546.264 529.813 538.963 C 525.641 531.662 521.991 523.839 519.905 513.931 C 517.819 504.022 517.297 492.028 517.037 480.033 C 516.776 468.039 516.776 456.044 517.298 447.7 C 517.819 439.356 518.862 434.663 519.713 431.747 C 520.563 428.831 521.222 427.692 517.595 424.4 C 513.969 421.107 506.057 415.659 500.056 411.453 C 494.054 407.246 489.962 404.281 487.916 402.798 C 485.87 401.315 485.87 401.315 485.87 401.315 C 485.87 401.315 485.87 401.315 485.314 402.241" id="cuyo&quot; style=&quot;fill: rgb(255, 200, 0); fill-rule: evenodd; fill-opacity: 0.9;" bx:d="M 485.87 401.315 U 482.536 406.872 U 480.313 413.54 U 472.533 413.54 U 469.199 421.319 U 460.308 413.54 U 453.64 419.097 U 451.417 426.876 U 446.972 436.879 U 439.192 450.215 U 438.081 461.329 U 433.636 473.554 U 424.745 479.111 U 419.188 490.224 U 416.123 487.258 U 413.229 497.099 U 405.125 501.151 U 404.546 515.044 U 401.652 522.569 U 404.546 530.094 U 398.757 536.462 U 395.863 546.302 U 395.863 550.355 U 389.496 553.828 U 386.022 560.195 U 383.128 565.405 U 384.286 572.93 U 387.18 582.192 U 388.338 589.138 U 390.653 594.927 U 387.759 600.716 U 388.917 608.241 U 388.338 618.661 U 395.284 620.976 U 392.969 626.765 U 390.074 635.448 U 383.707 638.921 U 376.761 636.605 U 374.445 643.552 U 371.551 652.814 U 368.078 661.496 U 365.762 671.916 U 366.341 682.336 U 359.973 689.861 U 354.764 688.124 U 352.448 703.625 U 350.712 714.623 U 355.343 723.885 U 357.079 733.147 U 359.973 737.199 U 366.92 740.672 U 371.551 743.566 U 367.359 752.004 U 361.471 749.083 U 366.7 756.553 U 365.953 765.517 U 373.423 770.746 U 369.688 775.975 U 376.411 781.951 U 373.423 787.927 U 375.664 800.626 U 383.134 807.349 U 381.64 813.325 U 378.652 820.048 U 380.893 830.506 U 382.387 837.229 U 389.857 832.747 U 395.086 837.229 U 398.074 843.205 U 394.339 849.181 U 392.098 855.157 U 389.857 861.88 U 391.351 868.603 U 390.604 875.326 U 393.592 882.796 U 392.098 888.772 U 394.339 894.748 U 392.098 900.724 U 386.122 902.965 U 380.146 904.459 U 384.628 912.676 U 379.399 915.664 U 373.423 922.387 U 368.941 929.857 U 365.953 934.339 U 366.7 940.315 U 361.471 947.038 U 362.218 956.749 U 360.724 963.472 U 352.507 964.219 U 350.266 969.448 U 354.748 973.182 U 358.483 976.917 U 357.736 983.64 U 360.724 989.616 U 359.977 997.833 U 363.712 1008.291 U 359.977 1013.188 U 359.108 1016.58 U 483.981 1021.759 U 505.273 1022.91 U 545.554 1022.335 U 577.204 1018.882 U 582.383 1017.731 U 585.836 1001.619 U 589.288 973.997 U 588.713 948.102 U 586.737 921.449 U 583.042 919.649 U 578.93 913.575 U 576.053 906.669 U 577.204 897.462 U 575.478 882.501 U 563.711 839.869 U 557.453 788.24 U 554.324 752.257 U 560.582 722.531 U 563.711 680.29 U 560.582 659.951 U 554.324 617.71 U 548.066 591.113 U 543.372 559.823 U 529.292 539.484 U 518.34 516.017 U 516.776 480.033 U 516.776 444.05 U 519.905 429.969 U 521.88 426.554 U 498.146 410.212 U 485.87 401.315 U 485.87 401.315 Z 1@94fb79e6"/>
  <path style="fill: rgb(255, 173, 225); fill-rule: evenodd; fill-opacity: 1;" d="M 522.939 426.637 C 525.39 427.74 530.292 429.946 534.581 432.152 C 538.87 434.358 542.547 436.563 546.101 438.647 C 549.655 440.73 553.086 442.691 556.64 445.02 C 560.194 447.348 563.871 450.044 567.425 452.127 C 570.978 454.211 574.41 455.681 578.209 456.417 C 582.008 457.152 586.174 457.152 593.037 456.907 C 599.9 456.662 609.459 456.171 618.283 455.314 C 627.106 454.456 635.194 453.23 643.895 451.392 C 652.596 449.554 661.91 447.103 666.6 445.95 C 671.29 444.796 671.356 444.941 671.524 445.734 C 671.691 446.528 671.96 447.971 672.486 449.842 C 673.012 451.713 673.794 454.012 674.455 455.932 C 675.115 457.852 675.654 459.393 676.192 460.909 C 676.73 462.426 677.268 463.917 677.818 465.434 C 678.368 466.95 678.931 468.491 679.469 469.885 C 680.007 471.279 680.52 472.527 681.034 474.019 C 681.548 475.51 682.061 477.247 682.6 478.947 C 683.138 480.646 683.7 482.31 684.349 484.291 C 684.997 486.272 685.73 488.571 687.674 494.845 C 689.617 501.12 692.769 511.37 695.86 520.555 C 698.95 529.74 701.977 537.859 704.592 544.809 C 707.207 551.759 709.409 557.54 712.093 563.802 C 714.776 570.064 717.942 576.807 721.071 583.067 C 724.2 589.326 727.293 595.1 730.506 600.634 C 733.719 606.168 737.052 611.462 739.307 615.383 C 741.561 619.304 742.737 621.852 743.913 624.205 C 745.089 626.557 746.266 628.714 746.658 631.262 C 747.05 633.811 746.658 636.751 746.266 639.398 C 745.874 642.045 745.482 644.397 743.718 647.044 C 741.953 649.691 738.817 652.631 736.562 656.16 C 734.308 659.689 732.935 663.806 731.367 669.687 C 729.798 675.569 728.034 683.214 726.857 691.154 C 725.681 699.094 725.093 707.328 724.897 714.19 C 724.701 721.051 724.897 726.541 724.995 733.01 C 725.093 739.48 725.093 746.929 724.995 762.972 C 724.897 779.015 724.701 803.652 724.211 818.911 C 723.721 834.169 722.936 840.051 722.152 846.814 C 721.368 853.578 720.584 861.223 719.506 867.399 C 718.428 873.574 717.055 878.279 714.899 882.788 C 712.742 887.297 709.802 891.61 706.077 895.139 C 702.352 898.668 697.843 901.412 693.726 903.765 C 689.609 906.118 685.884 908.078 682.649 910.921 C 679.414 913.764 676.67 917.488 674.513 920.135 C 672.357 922.781 670.788 924.35 668.044 925.33 C 665.299 926.31 661.378 926.703 653.732 926.703 C 646.086 926.703 634.716 926.31 623.835 926.016 C 612.955 925.722 602.564 925.526 595.507 924.448 C 588.449 923.37 584.725 921.409 582.078 918.273 C 579.431 915.136 577.863 910.823 577.383 907.49 C 576.903 904.157 577.513 901.805 577.513 898.962 C 577.513 896.119 576.903 892.787 576.207 888.964 C 575.51 885.141 574.726 880.828 572.962 873.574 C 571.197 866.321 568.453 856.126 565.904 844.364 C 563.355 832.601 561.003 819.269 559.042 803.978 C 557.082 788.686 555.513 771.434 553.847 752.908 C 552.181 734.382 550.416 714.581 547.28 683.955 C 544.143 653.328 539.634 611.876 536.987 586.738 C 534.341 561.601 533.556 552.779 531.596 544.839 C 529.635 536.899 526.499 529.842 524.048 522.98 C 521.598 516.118 519.833 509.453 518.461 499.846 C 517.089 490.24 516.108 477.693 515.912 467.205 C 515.716 456.716 516.305 448.286 517.198 441.684 C 518.091 435.082 519.29 430.308 519.889 427.921 C 520.488 425.534 520.488 425.534 520.488 425.534 C 520.488 425.534 520.488 425.534 522.939 426.637" id="sierrasPampeanas&quot; style=&quot;fill: rgb(255, 173, 225); fill-rule: evenodd; fill-opacity: 1;" bx:d="M 520.488 425.534 U 535.194 432.152 U 546.223 438.769 U 556.518 444.652 U 567.547 452.74 U 577.841 457.152 U 590.341 457.152 U 619.018 455.681 U 643.282 452.005 U 671.224 444.652 U 671.422 445.085 U 672.229 449.414 U 674.577 456.311 U 676.192 460.934 U 677.806 465.409 U 679.493 470.032 U 681.034 473.774 U 682.575 478.983 U 684.263 483.973 U 686.464 490.87 U 695.922 521.62 U 705.005 545.979 U 711.611 563.32 U 721.107 583.551 U 730.386 600.875 U 740.385 616.755 U 743.913 624.401 U 747.442 630.87 U 746.266 639.692 U 745.09 646.75 U 735.68 655.572 U 731.563 667.923 U 726.269 690.86 U 724.505 715.562 U 725.093 732.03 U 725.093 754.379 U 724.505 828.288 U 722.152 845.932 U 719.8 868.869 U 715.683 882.984 U 706.861 895.923 U 693.334 904.157 U 682.159 910.039 U 673.925 921.213 U 669.22 925.918 U 657.457 927.095 U 623.345 925.918 U 592.174 925.33 U 581 919.449 U 576.294 906.51 U 578.122 899.452 U 576.294 889.454 U 573.942 876.515 U 565.708 845.932 U 558.65 805.938 U 553.945 754.182 U 548.652 694.781 U 535.125 570.423 U 532.772 543.957 U 523.362 522.784 U 518.069 502.787 U 515.128 465.146 U 516.893 439.856 U 520.488 425.534 U 520.488 425.534 Z 1@1288464a"/>
  <path style="fill: rgb(128, 56, 25); fill-rule: evenodd; fill-opacity: 1;" d="M 587.072 927.034 C 586.798 926.155 586.249 924.399 586.194 923.438 C 586.139 922.477 586.578 922.313 588.225 922.697 C 589.872 923.081 592.726 924.015 597.859 924.618 C 602.992 925.222 610.403 925.497 616.716 925.716 C 623.029 925.936 628.245 926.1 633.076 926.238 C 637.906 926.375 642.353 926.484 646.827 926.539 C 651.301 926.594 655.802 926.594 659.371 926.402 C 662.939 926.21 665.574 925.826 667.386 925.552 C 669.197 925.277 670.185 925.113 670.24 926.018 C 670.295 926.924 669.416 928.9 668.62 931.233 C 667.824 933.566 667.111 936.256 666.48 938.864 C 665.848 941.471 665.3 943.997 664.769 947.24 C 664.238 950.482 663.724 954.443 663.377 958.415 C 663.03 962.387 662.849 966.371 662.789 969.963 C 662.728 973.554 662.789 976.753 662.879 980.194 C 662.97 983.634 663.09 987.316 663.392 990.636 C 663.694 993.956 664.177 996.913 664.901 1000.414 C 665.626 1003.915 666.591 1007.959 667.467 1011.413 C 668.342 1014.867 669.126 1017.731 670.904 1022.891 C 672.682 1028.05 675.454 1035.505 679.508 1044.702 C 683.563 1053.899 688.9 1064.837 694.175 1074.477 C 699.45 1084.116 704.662 1092.455 709.874 1100.404 C 715.086 1108.353 720.299 1115.91 726.032 1123.468 C 731.766 1131.026 738.02 1138.583 744.666 1145.881 C 751.311 1153.178 758.348 1160.214 765.775 1167.121 C 773.202 1174.027 781.021 1180.802 787.927 1186.275 C 794.833 1191.748 800.827 1195.918 806.691 1199.697 C 812.555 1203.476 818.288 1206.864 822.719 1209.079 C 827.149 1211.294 830.277 1212.337 832.492 1213.379 C 834.707 1214.421 836.01 1215.464 836.531 1216.897 C 837.052 1218.33 836.792 1220.155 836.792 1222.964 C 836.792 1225.772 837.052 1229.566 837.834 1233.808 C 838.616 1238.05 839.919 1242.741 841.483 1246.259 C 843.046 1249.777 844.871 1252.123 846.695 1253.295 C 848.519 1254.468 850.344 1254.468 851.126 1255.771 C 851.907 1257.074 851.647 1259.681 851.125 1262.157 C 850.604 1264.632 849.822 1266.978 849.561 1269.844 C 849.301 1272.711 849.561 1276.099 848.128 1278.054 C 846.695 1280.008 843.567 1280.53 841.483 1281.833 C 839.398 1283.136 838.355 1285.22 837.574 1287.436 C 836.792 1289.651 836.27 1291.996 836.14 1294.472 C 836.01 1296.948 836.27 1299.554 834.967 1302.16 C 833.664 1304.766 830.798 1307.373 829.755 1309.849 C 828.713 1312.324 829.494 1314.67 830.407 1317.276 C 831.319 1319.882 832.361 1322.748 833.665 1324.442 C 834.968 1326.136 836.531 1326.658 838.225 1328.352 C 839.919 1330.046 841.744 1332.912 841.874 1336.04 C 842.004 1339.167 840.441 1342.555 838.486 1345.682 C 836.531 1348.81 834.186 1351.676 830.146 1354.413 C 826.107 1357.149 820.373 1359.755 814.77 1362.231 C 809.167 1364.707 803.694 1367.052 798.091 1368.486 C 792.488 1369.919 786.754 1370.44 779.327 1370.44 C 771.9 1370.44 762.778 1369.919 755.872 1368.877 C 748.966 1367.834 744.275 1366.271 739.454 1364.446 C 734.632 1362.622 729.681 1360.537 724.859 1358.134 C 720.038 1355.73 715.347 1353.008 711.568 1351.256 C 707.789 1349.504 704.923 1348.723 704.662 1345.856 C 704.401 1342.989 706.747 1338.038 707.267 1330.29 C 707.787 1322.541 706.482 1311.997 704.598 1301.553 C 702.715 1291.11 700.252 1280.767 698.529 1272.641 C 696.805 1264.515 695.82 1258.605 695.081 1251.956 C 694.342 1245.307 693.85 1237.92 693.357 1232.01 C 692.865 1226.099 692.372 1221.667 691.141 1217.234 C 689.91 1212.802 687.94 1208.369 682.522 1205.168 C 677.105 1201.967 668.239 1199.997 655.681 1195.564 C 643.122 1191.132 626.869 1184.236 612.587 1177.834 C 598.304 1171.431 585.992 1165.521 577.619 1161.827 C 569.246 1158.134 564.814 1156.656 560.428 1153.177 C 556.042 1149.698 551.702 1144.218 548.501 1137.815 C 545.3 1131.413 543.237 1124.088 542.452 1116.732 C 541.666 1109.376 542.159 1101.989 542.897 1094.601 C 543.636 1087.213 544.621 1079.826 546.837 1071.699 C 549.054 1063.573 552.501 1054.708 557.18 1049.291 C 561.859 1043.873 567.769 1041.903 572.448 1037.224 C 577.126 1032.545 580.574 1025.158 582.79 1015.308 C 585.006 1005.457 585.991 993.145 587.222 983.048 C 588.454 972.952 589.931 965.072 589.993 956.252 C 590.055 947.432 588.701 937.672 588.024 932.792 C 587.347 927.912 587.347 927.912 587.347 927.912 C 587.347 927.912 587.347 927.912 587.072 927.034" id="pampaSeca&quot; style=&quot;fill: rgb(128, 56, 25); fill-rule: evenodd; fill-opacity: 1;" bx:d="M 587.347 927.912 U 585.7 922.642 U 587.017 922.148 U 595.581 924.948 U 617.814 925.771 U 633.46 926.265 U 646.799 926.594 U 660.304 926.594 U 668.209 925.442 U 671.173 924.948 U 668.538 930.876 U 666.397 938.946 U 664.751 946.522 U 663.211 958.403 U 662.668 970.355 U 662.849 979.952 U 663.211 990.998 U 664.66 999.871 U 667.557 1012.003 U 669.911 1020.595 U 678.225 1042.96 U 694.238 1075.776 U 709.874 1100.795 U 725.511 1123.468 U 744.275 1146.141 U 765.384 1167.251 U 788.839 1187.578 U 806.821 1200.088 U 824.022 1210.252 U 833.404 1213.379 U 837.313 1216.506 U 836.531 1221.979 U 837.313 1233.359 U 841.222 1247.432 U 846.695 1254.468 U 852.168 1254.468 U 851.386 1262.287 U 849.04 1269.323 U 849.822 1279.487 U 840.44 1281.051 U 837.313 1287.305 U 835.749 1294.342 U 836.531 1302.16 U 827.931 1309.979 U 830.276 1317.015 U 833.404 1325.615 U 838.095 1327.179 U 843.568 1335.779 U 838.877 1345.943 U 831.84 1354.543 U 814.64 1362.361 U 798.221 1369.398 U 781.021 1370.961 U 753.657 1369.398 U 739.584 1364.707 U 724.729 1358.452 U 710.656 1350.286 U 702.056 1347.941 U 709.092 1333.086 U 705.177 1301.452 U 697.79 1270.425 U 694.835 1252.695 U 693.357 1230.532 U 691.88 1217.234 U 685.97 1203.937 U 659.374 1198.027 U 610.617 1177.341 U 573.679 1159.611 U 560.381 1155.179 U 547.363 1138.737 U 541.174 1116.764 U 542.651 1094.601 U 545.606 1072.438 U 555.949 1045.843 U 573.679 1039.933 U 584.021 1017.77 U 586.976 980.832 U 591.409 957.192 U 587.347 927.912 U 587.347 927.912 Z 1@0deb62de"/>
  <path style="fill: rgb(212, 180, 76); fill-rule: evenodd; fill-opacity: 1;" d="M 1067.148 900.651 C 1067.839 899.465 1069.223 897.094 1069.519 894.228 C 1069.815 891.363 1069.025 888.003 1068.037 885.434 C 1067.048 882.865 1065.863 881.087 1065.171 879.407 C 1064.479 877.727 1064.282 876.146 1063.393 874.071 C 1062.503 871.996 1060.923 869.427 1060.429 866.364 C 1059.935 863.301 1060.527 859.743 1060.725 856.384 C 1060.922 853.024 1060.725 849.863 1061.614 847.195 C 1062.503 844.527 1064.48 842.353 1065.567 840.179 C 1066.654 838.005 1066.851 835.832 1066.753 833.46 C 1066.654 831.089 1066.258 828.52 1066.456 826.544 C 1066.653 824.568 1067.444 823.184 1068.926 822.493 C 1070.408 821.801 1072.582 821.801 1074.558 821.505 C 1076.535 821.208 1078.313 820.615 1079.993 819.33 C 1081.673 818.046 1083.253 816.069 1083.747 813.204 C 1084.241 810.338 1083.649 806.584 1083.352 802.928 C 1083.056 799.272 1083.056 795.715 1082.562 792.257 C 1082.068 788.798 1081.08 785.439 1080.981 782.277 C 1080.882 779.115 1081.673 776.15 1082.463 774.075 C 1083.253 772 1084.044 770.815 1084.044 768.641 C 1084.044 766.467 1083.253 763.305 1082.957 760.143 C 1082.661 756.981 1082.858 753.82 1082.463 750.856 C 1082.068 747.891 1081.08 745.125 1081.08 742.555 C 1081.08 739.986 1082.068 737.615 1083.353 736.429 C 1084.637 735.243 1086.218 735.243 1087.7 732.476 C 1089.182 729.71 1090.566 724.176 1090.467 720.718 C 1090.368 717.26 1088.787 715.876 1088.194 714.197 C 1087.601 712.517 1087.997 710.541 1089.084 709.158 C 1090.17 707.774 1091.949 706.984 1093.134 705.502 C 1094.32 704.019 1094.913 701.846 1095.901 698.486 C 1096.889 695.127 1098.273 690.581 1098.569 686.827 C 1098.865 683.072 1098.075 680.107 1098.371 677.538 C 1098.667 674.969 1100.051 672.796 1101.237 670.479 C 1102.422 668.163 1103.411 665.703 1102.917 662.399 C 1102.423 659.094 1100.446 654.944 1099.656 651.585 C 1098.865 648.225 1099.261 645.656 1100.743 643.877 C 1102.225 642.099 1104.794 641.111 1107.067 639.827 C 1109.339 638.542 1111.316 636.961 1112.798 634.096 C 1114.28 631.23 1115.268 627.08 1116.651 624.412 C 1118.035 621.744 1119.813 620.559 1121.394 619.175 C 1122.975 617.792 1124.359 616.211 1125.841 614.828 C 1127.323 613.444 1128.904 612.259 1129.892 609.986 C 1130.88 607.713 1131.275 604.354 1132.461 601.785 C 1133.646 599.215 1135.623 597.437 1137.5 596.547 C 1139.378 595.658 1141.156 595.658 1143.429 594.077 C 1145.702 592.496 1148.468 589.335 1150.642 586.568 C 1152.816 583.801 1154.396 581.43 1156.274 579.552 C 1158.151 577.675 1160.325 576.291 1161.709 574.612 C 1163.092 572.932 1163.685 570.956 1164.772 569.672 C 1165.859 568.387 1167.439 567.794 1168.921 565.324 C 1170.403 562.853 1171.787 558.506 1173.071 555.937 C 1174.356 553.368 1175.542 552.577 1177.321 551.886 C 1179.099 551.194 1181.471 550.601 1182.953 549.514 C 1184.435 548.427 1185.027 546.846 1185.348 545.337 C 1185.668 543.828 1185.717 542.39 1186.751 541.279 C 1187.786 540.167 1189.807 539.381 1190.93 537.809 C 1192.053 536.237 1192.277 533.879 1192.727 532.139 C 1193.176 530.398 1193.849 529.275 1194.692 528.601 C 1195.534 527.927 1196.544 527.703 1197.387 527.703 C 1198.229 527.703 1198.902 527.927 1199.464 527.254 C 1200.025 526.58 1200.474 525.008 1201.204 523.661 C 1201.934 522.313 1202.944 521.191 1203.955 520.236 C 1204.966 519.282 1205.976 518.496 1206.931 517.766 C 1207.885 517.036 1208.783 516.362 1209.008 515.576 C 1209.232 514.79 1208.783 513.892 1209.064 512.857 C 1209.345 511.821 1210.355 510.649 1211.591 509.782 C 1212.826 508.914 1214.285 508.353 1215.127 507.342 C 1215.97 506.331 1216.194 504.872 1216.644 503.581 C 1217.093 502.289 1217.766 501.167 1218.721 500.605 C 1219.675 500.044 1220.91 500.044 1221.977 500.268 C 1223.043 500.493 1223.942 500.942 1224.587 499.666 C 1225.233 498.389 1225.625 495.388 1228.03 492.376 C 1230.434 489.365 1234.849 486.344 1238.219 483.439 C 1241.589 480.534 1243.913 477.746 1246.005 475.215 C 1248.096 472.685 1249.955 470.412 1252.628 468.811 C 1255.3 467.21 1258.786 466.281 1261.923 465.235 C 1265.061 464.189 1267.849 463.027 1269.941 460.587 C 1272.032 458.147 1273.427 454.428 1276.215 451.523 C 1279.004 448.618 1283.187 446.527 1287.719 444.784 C 1292.25 443.041 1297.131 441.646 1301.198 440.717 C 1305.265 439.787 1308.518 439.323 1311.191 437.812 C 1313.863 436.302 1315.955 433.745 1318.511 431.77 C 1321.067 429.795 1324.089 428.4 1327.11 426.309 C 1330.131 424.217 1333.152 421.429 1334.895 418.872 C 1336.638 416.316 1337.103 413.992 1338.381 411.319 C 1339.659 408.647 1341.751 405.625 1342.448 401.907 C 1343.145 398.189 1342.448 393.773 1341.983 389.474 C 1341.518 385.175 1341.286 380.992 1341.75 377.739 C 1342.215 374.485 1343.377 372.161 1344.888 369.721 C 1346.398 367.281 1348.258 364.724 1349.304 362.517 C 1350.349 360.309 1350.582 358.449 1349.304 356.823 C 1348.025 355.196 1345.237 353.801 1343.261 351.477 C 1341.286 349.154 1340.124 345.9 1339.078 343.693 C 1338.032 341.485 1337.103 340.323 1336.406 338.115 C 1335.708 335.907 1335.244 332.654 1334.547 329.633 C 1333.849 326.611 1332.92 323.823 1331.642 321.266 C 1330.363 318.71 1328.737 316.386 1326.529 314.411 C 1324.321 312.435 1321.533 310.809 1319.209 310.693 C 1316.885 310.576 1315.025 311.971 1312.934 312.784 C 1310.842 313.597 1308.518 313.83 1306.31 313.83 C 1304.103 313.83 1302.011 313.597 1300.269 313.481 C 1298.526 313.365 1297.131 313.365 1295.621 314.295 C 1294.11 315.224 1292.483 317.083 1291.553 319.756 C 1290.624 322.428 1290.391 325.914 1290.624 329.051 C 1290.856 332.189 1291.554 334.977 1291.438 337.417 C 1291.321 339.858 1290.392 341.949 1290.275 344.738 C 1290.159 347.527 1290.856 351.013 1290.74 354.383 C 1290.624 357.752 1289.694 361.006 1288.533 364.259 C 1287.371 367.513 1285.976 370.766 1284.698 373.323 C 1283.42 375.879 1282.258 377.738 1281.561 379.946 C 1280.864 382.153 1280.631 384.71 1279.586 386.104 C 1278.54 387.499 1276.68 387.731 1275.751 388.661 C 1274.821 389.591 1274.821 391.217 1273.194 392.496 C 1271.568 393.774 1268.314 394.703 1265.99 396.098 C 1263.666 397.492 1262.272 399.351 1260.993 400.978 C 1259.715 402.604 1258.554 403.999 1256.578 404.812 C 1254.603 405.625 1251.814 405.858 1249.722 407.252 C 1247.631 408.646 1246.236 411.203 1244.029 412.83 C 1241.821 414.456 1238.8 415.154 1236.941 416.781 C 1235.082 418.407 1234.384 420.964 1234.268 423.288 C 1234.152 425.612 1234.617 427.703 1234.269 429.679 C 1233.92 431.654 1232.758 433.513 1231.131 434.675 C 1229.504 435.837 1227.413 436.301 1225.089 435.953 C 1222.765 435.604 1220.208 434.442 1217.42 433.396 C 1214.631 432.351 1211.61 431.421 1209.17 430.841 C 1206.73 430.26 1204.87 430.027 1203.127 430.957 C 1201.384 431.886 1199.758 433.978 1198.363 435.953 C 1196.969 437.928 1195.807 439.788 1194.297 441.647 C 1192.786 443.506 1190.927 445.365 1188.952 446.295 C 1186.976 447.224 1184.885 447.224 1182.909 445.714 C 1180.934 444.203 1179.075 441.182 1176.983 440.253 C 1174.892 439.323 1172.568 440.485 1170.593 441.879 C 1168.617 443.274 1166.99 444.9 1165.131 446.062 C 1163.272 447.224 1161.18 447.921 1159.205 447.224 C 1157.23 446.527 1155.37 444.435 1153.279 443.041 C 1151.187 441.647 1148.863 440.949 1145.609 440.136 C 1142.356 439.323 1138.173 438.393 1134.687 438.161 C 1131.201 437.929 1128.413 438.393 1126.089 438.51 C 1123.765 438.626 1121.906 438.393 1119.815 437.348 C 1117.723 436.302 1115.399 434.442 1112.61 433.28 C 1109.821 432.118 1106.568 431.654 1103.43 430.724 C 1100.293 429.795 1097.272 428.4 1094.251 427.703 C 1091.23 427.006 1088.208 427.006 1085.303 426.773 C 1082.398 426.541 1079.61 426.076 1076.124 426.192 C 1072.638 426.308 1068.455 427.006 1065.666 427.819 C 1062.878 428.633 1061.483 429.562 1058.927 431.189 C 1056.371 432.816 1052.652 435.14 1050.328 437.58 C 1048.004 440.02 1047.075 442.577 1046.494 445.598 C 1045.913 448.619 1045.68 452.104 1045.564 456.055 C 1045.448 460.006 1045.448 464.421 1044.635 468.721 C 1043.821 473.02 1042.195 477.203 1040.568 479.643 C 1038.941 482.083 1037.314 482.781 1035.803 483.827 C 1034.293 484.872 1032.898 486.267 1032.085 489.288 C 1031.272 492.309 1031.039 496.956 1030.575 501.72 C 1030.11 506.484 1029.413 511.365 1028.948 516.361 C 1028.483 521.358 1028.251 526.47 1027.554 530.421 C 1026.856 534.372 1025.695 537.16 1023.836 540.646 C 1021.976 544.132 1019.42 548.316 1016.05 552.964 C 1012.68 557.612 1008.497 562.724 1005.476 568.534 C 1002.455 574.344 1000.596 580.851 999.318 585.964 C 998.04 591.076 997.342 594.795 997.226 598.048 C 997.11 601.302 997.575 604.09 998.388 607.344 C 999.202 610.597 1000.363 614.316 1000.131 617.685 C 999.898 621.055 998.272 624.076 997.923 627.097 C 997.575 630.118 998.504 633.14 999.318 636.393 C 1000.131 639.647 1000.828 643.132 999.318 648.968 C 997.807 654.804 994.089 662.989 990.371 669.626 C 986.653 676.262 982.934 681.348 980.378 683.659 C 977.822 685.97 976.427 685.506 975.846 686.784 C 975.265 688.062 975.498 691.083 974.8 694.453 C 974.103 697.822 972.476 701.541 970.384 704.91 C 968.293 708.28 965.736 711.301 962.483 714.903 C 959.229 718.505 955.279 722.689 951.444 726.291 C 947.61 729.893 943.891 732.914 941.335 735.703 C 938.779 738.491 937.384 741.048 936.339 745.812 C 935.293 750.576 934.596 757.548 933.899 764.288 C 933.202 771.027 932.504 777.534 932.621 782.995 C 932.737 788.456 933.666 792.872 934.828 796.706 C 935.99 800.541 937.385 803.794 939.476 807.745 C 941.568 811.696 944.356 816.343 947.145 819.713 C 949.934 823.083 952.722 825.174 958.184 829.125 C 963.645 833.076 971.779 838.886 979.448 843.87 C 987.117 848.853 994.321 853.01 1002.222 856.832 C 1010.124 860.653 1018.722 864.139 1024.881 866.695 C 1031.039 869.252 1034.758 870.878 1038.592 872.738 C 1042.427 874.597 1046.377 876.688 1049.747 879.012 C 1053.117 881.336 1055.905 883.893 1057.765 886.798 C 1059.624 889.702 1060.553 892.956 1061.847 895.52 C 1063.141 898.085 1064.798 899.961 1065.627 900.899 C 1066.456 901.837 1066.456 901.837 1066.456 901.837 C 1066.456 901.837 1066.456 901.837 1067.148 900.651" id="mesopotamia&quot; style=&quot;fill: rgb(212, 180, 76); fill-rule: evenodd; fill-opacity: 1;" bx:d="M 1066.456 901.837 U 1070.606 894.722 U 1068.234 884.644 U 1064.677 879.308 U 1064.084 874.565 U 1059.342 866.858 U 1061.12 856.186 U 1060.527 846.701 U 1066.456 840.179 U 1067.049 833.658 U 1065.863 825.951 U 1068.234 821.801 U 1074.756 821.801 U 1080.092 820.022 U 1084.834 814.093 U 1083.056 802.829 U 1083.056 792.158 U 1080.092 782.079 U 1082.463 773.186 U 1084.834 769.629 U 1082.463 760.143 U 1083.056 750.658 U 1080.092 742.358 U 1083.056 735.243 U 1087.799 735.243 U 1091.949 718.643 U 1087.206 714.493 U 1088.392 708.565 U 1093.727 706.193 U 1095.506 699.672 U 1099.656 686.036 U 1097.284 677.143 U 1101.434 670.622 U 1104.399 663.244 U 1098.47 650.794 U 1099.656 643.087 U 1107.363 640.123 U 1113.292 635.38 U 1116.256 622.93 U 1121.592 619.373 U 1125.742 614.63 U 1130.485 611.073 U 1131.67 600.994 U 1137.599 595.658 U 1142.935 595.658 U 1151.235 586.173 U 1155.977 579.058 U 1162.499 574.908 U 1164.278 568.98 U 1169.02 567.201 U 1173.17 554.158 U 1176.728 551.787 U 1183.842 550.008 U 1185.62 545.265 U 1185.765 540.953 U 1191.828 538.595 U 1192.502 531.521 U 1194.523 528.152 U 1197.555 527.478 U 1199.576 528.152 U 1200.923 523.436 U 1203.955 520.068 U 1206.987 517.71 U 1209.681 515.688 U 1208.334 512.994 U 1211.366 509.476 U 1215.745 507.791 U 1216.419 503.412 U 1218.44 500.044 U 1222.145 500.044 U 1224.84 501.391 U 1226.018 492.386 U 1239.265 483.323 U 1246.237 474.957 U 1251.814 468.14 U 1262.272 465.351 U 1270.638 461.865 U 1274.821 450.71 U 1287.37 444.435 U 1302.011 440.252 U 1311.772 438.858 U 1318.046 431.189 U 1327.11 427.006 U 1336.173 418.64 U 1337.568 411.668 U 1343.842 402.604 U 1341.751 389.358 U 1341.053 376.809 U 1344.539 369.837 U 1350.117 362.168 U 1350.814 356.59 U 1342.448 352.407 U 1338.962 342.647 U 1336.173 339.161 U 1334.779 329.4 U 1331.99 321.034 U 1327.11 314.062 U 1318.744 309.182 U 1313.166 313.365 U 1306.194 314.062 U 1299.92 313.365 U 1295.737 313.365 U 1290.856 318.942 U 1290.159 329.4 U 1292.251 337.766 U 1289.462 344.041 U 1291.553 354.499 U 1288.765 364.259 U 1284.582 374.02 U 1281.096 379.597 U 1280.399 387.266 U 1274.821 387.964 U 1274.821 392.844 U 1265.061 395.633 U 1260.877 401.21 U 1257.392 405.393 U 1249.025 406.09 U 1244.842 413.759 U 1235.779 415.851 U 1233.687 423.52 U 1235.082 429.795 U 1231.596 435.372 U 1225.321 436.766 U 1217.652 433.28 U 1208.589 430.492 U 1203.011 429.795 U 1198.131 436.069 U 1194.645 441.647 U 1189.068 447.224 U 1182.793 447.224 U 1177.216 438.161 U 1170.244 441.647 U 1165.363 446.527 U 1159.089 448.618 U 1153.511 442.344 U 1146.539 440.252 U 1133.99 437.464 U 1125.624 438.858 U 1120.047 438.161 U 1113.075 432.583 U 1103.314 431.189 U 1094.251 427.006 U 1085.187 427.006 U 1076.821 425.611 U 1064.272 427.703 U 1060.089 430.492 U 1048.934 437.464 U 1046.145 445.133 U 1045.448 455.59 U 1045.448 468.837 U 1040.568 481.386 U 1035.687 483.478 U 1031.504 487.661 U 1030.807 501.604 U 1028.716 516.245 U 1028.018 531.583 U 1024.533 539.949 U 1016.863 552.499 U 1004.314 567.837 U 998.737 587.358 U 996.645 598.513 U 998.04 606.879 U 1001.525 618.034 U 996.645 627.097 U 999.434 636.161 U 1001.525 646.618 U 990.371 671.175 U 979.216 686.435 U 975.033 685.041 U 975.73 694.104 U 970.849 705.259 U 963.18 714.322 U 951.328 726.872 U 940.173 735.935 U 935.99 743.604 U 933.899 764.52 U 931.807 784.041 U 934.596 797.287 U 938.779 807.048 U 947.145 820.991 U 955.511 827.266 U 979.913 844.696 U 1001.525 857.167 U 1027.321 867.625 U 1038.476 872.505 U 1050.328 878.78 U 1058.694 886.449 U 1061.483 896.209 U 1066.456 901.837 U 1066.456 901.837 Z 1@594cee23"/>
  <path style="fill: rgb(237, 229, 199); fill-rule: evenodd; fill-opacity: 1;" d="M 588.523 2312.154 C 591.291 2311.116 596.826 2309.04 602.708 2307.31 C 608.59 2305.58 614.817 2304.196 620.007 2304.542 C 625.197 2304.888 629.348 2306.964 634.538 2307.31 C 639.728 2307.656 645.955 2306.272 651.837 2302.812 C 657.719 2299.352 663.254 2293.817 661.525 2290.703 C 659.795 2287.589 650.799 2286.897 641.804 2285.859 C 632.808 2284.821 623.813 2283.437 613.433 2280.323 C 603.054 2277.209 591.29 2272.366 582.295 2267.522 C 573.299 2262.678 567.072 2257.835 558.768 2253.337 C 550.465 2248.839 540.085 2244.687 534.55 2240.535 C 529.014 2236.383 528.322 2232.232 523.824 2228.08 C 519.326 2223.928 511.023 2219.777 504.795 2214.241 C 498.567 2208.705 494.416 2201.786 489.226 2197.634 C 484.036 2193.482 477.809 2192.098 473.956 2190.463 C 470.104 2188.828 468.626 2186.941 469.251 2184.484 C 469.875 2182.026 472.601 2178.998 475.63 2177.181 C 478.659 2175.363 481.99 2174.758 483.05 2173.092 C 484.11 2171.426 482.899 2168.7 480.476 2165.217 C 478.053 2161.734 474.418 2157.494 472.601 2154.314 C 470.784 2151.134 470.784 2149.013 472.298 2144.925 C 473.813 2140.836 476.841 2134.778 476.387 2129.024 C 475.933 2123.269 471.995 2117.818 466.846 2111.457 C 461.698 2105.097 455.337 2097.828 450.794 2092.376 C 446.251 2086.924 443.525 2083.29 442.768 2080.564 C 442.011 2077.838 443.222 2076.021 442.162 2070.115 C 441.102 2064.209 437.771 2054.214 435.499 2048.459 C 433.228 2042.705 432.016 2041.19 431.714 2039.222 C 431.411 2037.253 432.016 2034.83 432.774 2030.893 C 433.531 2026.955 434.439 2021.504 435.348 2016.809 C 436.257 2012.115 437.165 2008.177 439.134 2004.694 C 441.103 2001.211 444.131 1998.183 448.22 1995.002 C 452.309 1991.822 457.457 1988.491 462.606 1986.219 C 467.755 1983.947 472.904 1982.736 476.539 1981.373 C 480.173 1980.01 482.293 1978.495 485.624 1977.435 C 488.956 1976.375 493.499 1975.77 498.194 1974.104 C 502.888 1972.438 507.734 1969.713 510.914 1965.473 C 514.094 1961.232 515.609 1955.478 516.82 1949.572 C 518.032 1943.665 518.94 1937.608 520.152 1932.762 C 521.363 1927.916 522.878 1924.281 522.423 1923.827 C 521.969 1923.373 519.546 1926.099 518.335 1926.099 C 517.123 1926.099 517.123 1923.373 518.183 1920.95 C 519.243 1918.527 521.364 1916.407 522.727 1913.53 C 524.09 1910.652 524.695 1907.018 526.815 1903.989 C 528.935 1900.96 532.57 1898.537 536.81 1895.239 C 541.05 1891.941 545.896 1887.769 549.379 1884.774 C 552.862 1881.779 554.983 1879.961 557.254 1878.598 C 559.526 1877.235 561.949 1876.327 564.221 1875.721 C 566.492 1875.115 568.612 1874.812 571.035 1873.298 C 573.458 1871.783 576.184 1869.058 579.213 1866.635 C 582.241 1864.212 585.573 1862.091 588.299 1860.426 C 591.024 1858.76 593.145 1857.548 595.568 1855.731 C 597.991 1853.914 600.716 1851.491 603.594 1849.371 C 606.471 1847.251 609.5 1845.433 612.377 1844.07 C 615.255 1842.707 617.98 1841.799 620.022 1841.43 C 622.063 1841.062 623.421 1841.234 623.806 1840.685 C 624.191 1840.135 623.605 1838.864 623.116 1837.544 C 622.627 1836.224 622.235 1834.855 622.431 1833.682 C 622.626 1832.508 623.409 1831.531 624.533 1831.189 C 625.658 1830.846 627.124 1831.14 628.493 1831.531 C 629.862 1831.922 631.133 1832.411 631.671 1832.118 C 632.209 1831.824 632.013 1830.749 631.28 1829.918 C 630.547 1829.086 629.275 1828.5 628.395 1827.522 C 627.515 1826.544 627.027 1825.175 626.293 1824.051 C 625.56 1822.926 624.582 1822.046 623.604 1821.459 C 622.626 1820.873 621.649 1820.579 621.502 1820.091 C 621.355 1819.602 622.04 1818.917 623.164 1818.624 C 624.289 1818.331 625.853 1818.428 627.027 1817.402 C 628.2 1816.375 628.982 1814.224 630.009 1812.513 C 631.035 1810.802 632.307 1809.53 633.187 1806.939 C 634.067 1804.348 634.555 1800.437 634.751 1796.868 C 634.946 1793.299 634.849 1790.073 634.458 1787.677 C 634.067 1785.282 633.382 1783.717 633.138 1782.251 C 632.893 1780.784 633.089 1779.415 632.013 1777.948 C 630.937 1776.482 628.591 1774.917 626.244 1773.744 C 623.897 1772.571 621.551 1771.788 619.644 1771.642 C 617.737 1771.495 616.271 1771.984 614.657 1772.082 C 613.044 1772.18 611.284 1771.886 609.866 1771.886 C 608.448 1771.886 607.373 1772.18 605.711 1772.326 C 604.048 1772.473 601.8 1772.473 600.138 1772.082 C 598.475 1771.691 597.4 1770.908 595.297 1770.419 C 593.195 1769.93 590.066 1769.735 586.986 1769.539 C 583.906 1769.344 580.875 1769.148 578.284 1768.475 C 575.693 1767.801 573.542 1766.648 571.489 1764.948 C 569.435 1763.247 567.48 1760.999 565.426 1759.141 C 563.373 1757.283 561.222 1755.817 558.973 1753.861 C 556.724 1751.905 554.378 1749.461 552.275 1747.505 C 550.173 1745.549 548.315 1744.083 546.31 1742.958 C 544.306 1741.834 542.155 1741.051 539.466 1738.802 C 536.777 1736.554 533.551 1732.838 531.497 1730.003 C 529.444 1727.167 528.564 1725.212 527.928 1722.572 C 527.293 1719.932 526.901 1716.607 526.315 1713.951 C 525.728 1711.294 524.946 1709.306 524.751 1707.383 C 524.555 1705.459 524.946 1703.602 525.337 1701.939 C 525.728 1700.277 526.119 1698.811 526.852 1697.833 C 527.586 1696.855 528.661 1696.366 529.101 1695.73 C 529.541 1695.095 529.346 1694.313 529.737 1693.286 C 530.128 1692.26 531.106 1690.988 532.915 1689.522 C 534.724 1688.055 537.364 1686.393 538.782 1684.926 C 540.2 1683.46 540.395 1682.188 540.738 1680.184 C 541.08 1678.179 541.568 1675.442 542.742 1673.388 C 543.915 1671.335 545.773 1669.966 547.533 1668.206 C 549.293 1666.446 550.955 1664.295 552.813 1661.997 C 554.67 1659.7 556.724 1657.255 558.337 1654.811 C 559.95 1652.366 561.124 1649.922 563.03 1648.162 C 564.937 1646.402 567.577 1645.326 570.07 1644.74 C 572.564 1644.153 574.91 1644.055 577.159 1644.104 C 579.408 1644.153 581.56 1644.348 583.32 1644.348 C 585.08 1644.348 586.448 1644.153 587.377 1643.664 C 588.306 1643.175 588.795 1642.393 588.257 1641.806 C 587.72 1641.22 586.155 1640.828 585.764 1640.437 C 585.373 1640.046 586.155 1639.655 587.182 1639.802 C 588.208 1639.948 589.48 1640.633 590.555 1640.828 C 591.631 1641.024 592.511 1640.73 592.511 1640.339 C 592.511 1639.948 591.631 1639.46 590.751 1639.02 C 589.871 1638.58 588.991 1638.188 588.795 1637.748 C 588.6 1637.308 589.088 1636.82 589.919 1636.429 C 590.75 1636.038 591.924 1635.744 593.293 1635.109 C 594.662 1634.473 596.226 1633.494 597.791 1632.956 C 599.355 1632.418 600.92 1632.321 602.582 1631.685 C 604.244 1631.05 606.004 1629.876 607.373 1629.143 C 608.742 1628.41 609.719 1628.116 611.431 1628.116 C 613.142 1628.116 615.586 1628.41 617.689 1629.192 C 619.791 1629.974 621.551 1631.245 623.116 1631.538 C 624.68 1631.832 626.049 1631.147 627.418 1630.952 C 628.787 1630.756 630.155 1631.05 631.622 1631.392 C 633.089 1631.734 634.653 1632.125 636.022 1632.321 C 637.391 1632.516 638.565 1632.516 639.689 1632.174 C 640.813 1631.832 641.889 1631.147 642.671 1630.316 C 643.453 1629.485 643.942 1628.507 644.284 1627.578 C 644.627 1626.649 644.822 1625.769 645.36 1625.134 C 645.898 1624.498 646.778 1624.107 646.827 1623.618 C 646.876 1623.129 646.093 1622.543 645.067 1622.054 C 644.04 1621.565 642.769 1621.174 641.498 1620.587 C 640.227 1620.001 638.955 1619.218 638.124 1618.338 C 637.293 1617.458 636.902 1616.481 637.049 1615.698 C 637.195 1614.916 637.88 1614.33 638.124 1613.547 C 638.369 1612.765 638.173 1611.787 638.76 1610.467 C 639.347 1609.147 640.715 1607.485 642.084 1606.41 C 643.453 1605.334 644.822 1604.845 645.995 1604.063 C 647.169 1603.28 648.146 1602.205 649.222 1601.374 C 650.297 1600.542 651.471 1599.956 652.742 1599.76 C 654.013 1599.565 655.382 1599.76 656.067 1599.418 C 656.751 1599.076 656.751 1598.196 657.142 1597.511 C 657.533 1596.827 658.316 1596.338 659.147 1596.24 C 659.978 1596.142 660.858 1596.436 661.542 1596.191 C 662.227 1595.947 662.715 1595.165 662.275 1594.578 C 661.835 1593.992 660.467 1593.6 659.929 1592.965 C 659.391 1592.329 659.685 1591.449 660.271 1590.765 C 660.858 1590.08 661.738 1589.592 662.667 1588.907 C 663.596 1588.223 664.573 1587.343 665.16 1586.512 C 665.747 1585.681 665.942 1584.898 665.698 1584.263 C 665.453 1583.627 664.769 1583.138 664.28 1582.551 C 663.791 1581.965 663.497 1581.28 663.106 1580.449 C 662.715 1579.618 662.227 1578.64 661.752 1577.899 C 661.277 1577.158 660.815 1576.653 660.744 1575.657 C 660.673 1574.661 660.991 1573.174 661.788 1572.324 C 662.585 1571.474 663.86 1571.261 664.498 1570.518 C 665.135 1569.774 665.135 1568.499 665.401 1567.33 C 665.666 1566.162 666.197 1565.099 666.356 1564.037 C 666.516 1562.975 666.303 1561.912 665.825 1561.381 C 665.347 1560.85 664.604 1560.85 664.019 1559.947 C 663.435 1559.044 663.01 1557.237 662.532 1555.537 C 662.054 1553.837 661.522 1552.244 661.363 1551.075 C 661.204 1549.906 661.416 1549.163 661.045 1548.153 C 660.673 1547.144 659.716 1545.869 659.344 1544.328 C 658.972 1542.788 659.185 1540.982 660.141 1539.123 C 661.097 1537.264 662.797 1535.351 664.444 1533.758 C 666.091 1532.164 667.684 1530.889 668.747 1529.508 C 669.809 1528.127 670.341 1526.639 671.775 1525.311 C 673.209 1523.983 675.547 1522.815 676.45 1521.38 C 677.353 1519.946 676.821 1518.246 677.724 1516.493 C 678.627 1514.74 680.965 1512.934 683.674 1511.022 C 686.383 1509.109 689.464 1507.091 692.067 1505.816 C 694.67 1504.541 696.795 1504.009 699.345 1503.372 C 701.895 1502.734 704.869 1501.991 708.057 1500.769 C 711.244 1499.547 714.644 1497.847 716.822 1496.572 C 719 1495.297 719.956 1494.448 720.009 1493.651 C 720.062 1492.854 719.212 1492.11 718.043 1491.951 C 716.875 1491.791 715.387 1492.216 713.847 1492.163 C 712.306 1492.11 710.713 1491.579 708.694 1491.154 C 706.675 1490.729 704.232 1490.41 701.948 1489.401 C 699.663 1488.391 697.539 1486.692 695.573 1485.683 C 693.608 1484.673 691.801 1484.355 689.73 1483.877 C 687.658 1483.398 685.32 1482.761 683.514 1482.229 C 681.708 1481.698 680.434 1481.273 679.69 1480.529 C 678.946 1479.786 678.734 1478.723 678.999 1477.714 C 679.265 1476.705 680.008 1475.748 680.486 1474.568 C 680.965 1473.387 681.177 1471.982 681.921 1471.279 C 682.665 1470.577 683.94 1470.577 685.374 1470.471 C 686.808 1470.365 688.402 1470.152 689.836 1469.515 C 691.27 1468.878 692.545 1467.815 693.661 1466.859 C 694.776 1465.903 695.733 1465.053 697.061 1464.362 C 698.389 1463.672 700.088 1463.14 701.735 1462.662 C 703.382 1462.184 704.975 1461.759 706.782 1461.547 C 708.588 1461.334 710.606 1461.334 712.253 1461.706 C 713.9 1462.078 715.175 1462.821 716.291 1463.406 C 717.406 1463.99 718.363 1464.415 718.947 1465.052 C 719.531 1465.69 719.744 1466.54 720.328 1467.178 C 720.912 1467.815 721.869 1468.24 722.772 1468.824 C 723.675 1469.409 724.524 1470.152 724.577 1470.79 C 724.63 1471.427 723.887 1471.959 723.462 1472.756 C 723.037 1473.552 722.931 1474.615 722.719 1475.837 C 722.506 1477.058 722.187 1478.44 722.453 1479.237 C 722.718 1480.033 723.568 1480.246 724.418 1480.724 C 725.268 1481.202 726.118 1481.945 726.862 1483.008 C 727.606 1484.07 728.243 1485.452 729.147 1486.461 C 730.05 1487.47 731.218 1488.108 732.44 1488.108 C 733.662 1488.108 734.936 1487.47 736.052 1487.045 C 737.167 1486.62 738.124 1486.408 739.452 1486.248 C 740.78 1486.089 742.48 1485.982 744.605 1485.611 C 746.73 1485.239 749.279 1484.601 751.351 1484.23 C 753.423 1483.858 755.016 1483.751 756.185 1483.114 C 757.354 1482.476 758.097 1481.308 758.788 1480.511 C 759.479 1479.714 760.116 1479.289 760.329 1478.599 C 760.541 1477.908 760.329 1476.952 760.807 1475.465 C 761.285 1473.977 762.453 1471.959 762.985 1469.674 C 763.516 1467.39 763.409 1464.84 763.197 1462.396 C 762.984 1459.953 762.666 1457.615 762.719 1455.437 C 762.772 1453.259 763.197 1451.241 763.091 1449.488 C 762.985 1447.735 762.347 1446.247 761.444 1445.132 C 760.541 1444.016 759.373 1443.273 758.151 1441.36 C 756.929 1439.448 755.654 1436.367 754.698 1434.614 C 753.742 1432.861 753.104 1432.436 751.829 1432.436 C 750.554 1432.436 748.642 1432.861 747.101 1433.286 C 745.56 1433.711 744.392 1434.136 743.064 1434.827 C 741.736 1435.517 740.248 1436.473 738.389 1437.323 C 736.53 1438.173 734.299 1438.917 732.546 1439.608 C 730.793 1440.298 729.518 1440.936 728.031 1441.201 C 726.543 1441.467 724.843 1441.36 723.249 1441.414 C 721.656 1441.467 720.168 1441.679 719.372 1442.317 C 718.575 1442.954 718.468 1444.017 718.734 1444.495 C 719 1444.973 719.637 1444.866 720.594 1444.92 C 721.55 1444.973 722.825 1445.185 724.366 1445.292 C 725.906 1445.398 727.712 1445.398 729.253 1445.557 C 730.793 1445.717 732.068 1446.035 732.865 1446.567 C 733.662 1447.098 733.98 1447.841 733.874 1448.638 C 733.768 1449.435 733.236 1450.285 733.077 1451.082 C 732.918 1451.879 733.13 1452.622 732.865 1453.313 C 732.599 1454.003 731.856 1454.641 730.634 1455.013 C 729.412 1455.384 727.712 1455.491 726.012 1455.438 C 724.312 1455.385 722.612 1455.172 721.443 1454.96 C 720.275 1454.747 719.637 1454.535 718.947 1454.747 C 718.256 1454.96 717.513 1455.597 716.503 1455.916 C 715.494 1456.235 714.219 1456.235 713.05 1456.182 C 711.882 1456.129 710.819 1456.022 709.173 1456.075 C 707.526 1456.128 705.294 1456.341 704.391 1455.969 C 703.488 1455.597 703.913 1454.641 704.497 1453.632 C 705.082 1452.622 705.825 1451.56 706.516 1450.71 C 707.207 1449.86 707.844 1449.222 708.801 1448.532 C 709.757 1447.841 711.032 1447.098 711.51 1446.407 C 711.988 1445.717 711.669 1445.079 711.032 1444.548 C 710.394 1444.017 709.438 1443.592 708.269 1443.539 C 707.101 1443.486 705.719 1443.804 704.551 1443.645 C 703.382 1443.485 702.426 1442.848 701.417 1442.476 C 700.407 1442.104 699.345 1441.998 698.335 1441.839 C 697.326 1441.679 696.37 1441.467 695.201 1440.988 C 694.033 1440.51 692.651 1439.767 691.429 1439.342 C 690.208 1438.917 689.145 1438.81 687.605 1438.439 C 686.064 1438.067 684.046 1437.429 682.505 1436.526 C 680.965 1435.623 679.902 1434.455 679.265 1433.233 C 678.627 1432.011 678.415 1430.736 677.884 1429.567 C 677.352 1428.399 676.503 1427.336 676.078 1426.433 C 675.653 1425.53 675.653 1424.787 675.812 1423.618 C 675.972 1422.449 676.29 1420.856 676.875 1419.309 C 677.459 1417.763 678.309 1416.263 679.053 1414.982 C 679.796 1413.701 680.434 1412.639 680.327 1411.47 C 680.221 1410.301 679.371 1409.026 678.84 1407.804 C 678.309 1406.582 678.096 1405.414 678.203 1404.351 C 678.309 1403.289 678.734 1402.333 679.053 1401.43 C 679.371 1400.527 679.584 1399.677 679.849 1398.189 C 680.115 1396.702 680.433 1394.577 680.062 1393.09 C 679.69 1391.602 678.627 1390.753 677.724 1390.009 C 676.821 1389.265 676.078 1388.628 675.547 1387.671 C 675.015 1386.715 674.697 1385.44 674.059 1383.262 C 673.422 1381.084 672.465 1378.003 671.775 1375.4 C 671.084 1372.797 670.659 1370.673 670.287 1368.176 C 669.915 1365.679 669.597 1362.811 669.437 1360.88 C 669.278 1358.95 669.278 1357.958 669.65 1356.772 C 670.022 1355.585 670.765 1354.204 671.244 1352.876 C 671.722 1351.548 671.934 1350.273 672.572 1349.104 C 673.209 1347.936 674.272 1346.873 675.546 1346.024 C 676.821 1345.174 678.309 1344.536 679.956 1344.218 C 681.602 1343.899 683.409 1343.899 684.046 1343.58 C 684.684 1343.261 684.152 1342.624 683.842 1342.095 C 683.531 1341.565 683.44 1341.145 682.888 1341.036 C 682.336 1340.927 681.321 1341.13 680.966 1341.054 C 680.611 1340.978 680.916 1340.622 681.474 1340.394 C 682.032 1340.166 682.843 1340.064 683.604 1340.039 C 684.365 1340.014 685.075 1340.064 685.861 1340.191 C 686.647 1340.318 687.51 1340.521 688.372 1340.673 C 689.235 1340.825 690.097 1340.927 690.351 1341.206 C 690.605 1341.485 690.249 1341.941 690.072 1342.398 C 689.894 1342.855 689.894 1343.311 690.249 1343.641 C 690.604 1343.971 691.315 1344.173 691.847 1344.326 C 692.38 1344.478 692.735 1344.579 692.71 1344.782 C 692.684 1344.985 692.279 1345.29 691.67 1345.442 C 691.061 1345.594 690.25 1345.594 689.641 1345.366 C 689.032 1345.137 688.626 1344.681 688.017 1344.554 C 687.408 1344.427 686.597 1344.63 685.912 1344.96 C 685.227 1345.29 684.669 1345.746 684.568 1346.254 C 684.466 1346.761 684.822 1347.319 685.329 1347.75 C 685.836 1348.181 686.496 1348.486 687.358 1348.486 C 688.22 1348.486 689.286 1348.181 690.224 1348.08 C 691.163 1347.978 691.974 1348.08 693.598 1348.384 C 695.221 1348.688 697.656 1349.196 700.189 1349.781 C 702.721 1350.365 705.352 1351.028 707.466 1351.479 C 709.58 1351.93 711.179 1352.17 711.419 1351.97 C 711.658 1351.77 710.54 1351.131 709.261 1350.371 C 707.982 1349.612 706.543 1348.733 705.704 1347.814 C 704.864 1346.895 704.625 1345.935 704.905 1343.418 C 705.184 1340.9 705.984 1336.824 706.543 1333.787 C 707.103 1330.75 707.422 1328.751 707.262 1324.755 C 707.103 1320.758 706.463 1314.763 705.784 1309.847 C 705.105 1304.932 704.385 1301.095 703.306 1295.434 C 702.227 1289.772 700.789 1282.286 699.63 1276.704 C 698.471 1271.122 697.591 1267.446 696.752 1263.17 C 695.913 1258.894 695.113 1254.018 694.474 1247.691 C 693.835 1241.363 693.355 1233.584 692.796 1227.856 C 692.236 1222.127 691.597 1218.451 690.518 1215.613 C 689.439 1212.776 687.92 1210.777 686.522 1209.139 C 685.123 1207.5 683.844 1206.222 681.486 1204.983 C 679.128 1203.744 675.692 1202.545 671.815 1201.226 C 667.939 1199.907 663.623 1198.469 659.986 1197.23 C 656.35 1195.991 653.392 1194.952 649.876 1193.5 C 646.359 1192.048 642.282 1190.182 636.248 1187.571 C 630.213 1184.96 622.221 1181.604 613.908 1177.967 C 605.596 1174.33 596.964 1170.414 588.612 1166.604 C 580.259 1162.794 572.187 1159.09 566.712 1156 C 561.237 1152.909 558.359 1150.432 556.201 1148.354 C 554.043 1146.275 552.605 1144.597 551.206 1142.558 C 549.807 1140.52 548.449 1138.123 547.21 1135.347 C 545.971 1132.572 544.852 1129.418 544.053 1126.323 C 543.253 1123.228 542.774 1120.191 542.534 1117.514 C 542.294 1114.836 542.294 1112.518 542.294 1109.401 C 542.294 1106.284 542.294 1102.367 542.494 1098.371 C 542.694 1094.375 543.093 1090.298 543.733 1086.275 C 544.372 1082.252 545.252 1078.283 546.011 1074.699 C 546.77 1071.116 547.41 1067.919 548.289 1065.281 C 549.168 1062.644 550.287 1060.565 551.566 1058.087 C 552.845 1055.61 554.283 1052.732 555.682 1050.574 C 557.081 1048.416 558.439 1046.978 560.198 1045.579 C 561.956 1044.18 564.114 1042.822 566.512 1041.05 C 568.91 1039.278 571.547 1037.093 573.626 1034.802 C 575.704 1032.51 577.222 1030.113 578.341 1027.755 C 579.46 1025.397 580.18 1023.079 580.739 1021.227 C 581.298 1019.376 581.698 1017.99 581.338 1017.617 C 580.978 1017.244 579.86 1017.884 577.822 1018.403 C 575.784 1018.923 572.826 1019.322 569.429 1019.735 C 566.032 1020.148 562.196 1020.575 558.079 1021.028 C 553.963 1021.481 549.567 1021.96 545.171 1022.32 C 540.775 1022.68 536.379 1022.919 530.145 1023.039 C 523.911 1023.159 515.838 1023.159 508.405 1022.999 C 500.972 1022.839 494.178 1022.52 485.866 1022.12 C 477.553 1021.72 467.723 1021.241 456.333 1020.761 C 444.944 1020.282 431.995 1019.802 420.606 1019.363 C 409.216 1018.923 399.385 1018.524 390.194 1017.884 C 381.002 1017.245 372.45 1016.365 367.854 1016.245 C 363.259 1016.125 362.619 1016.765 362.34 1017.964 C 362.06 1019.163 362.139 1020.921 362.019 1022.68 C 361.899 1024.438 361.58 1026.197 360.94 1027.795 C 360.301 1029.394 359.342 1030.832 357.943 1031.392 C 356.545 1031.951 354.706 1031.632 353.068 1031.951 C 351.429 1032.271 349.991 1033.23 348.792 1034.349 C 347.593 1035.468 346.634 1036.747 345.955 1037.977 C 345.275 1039.207 344.876 1040.388 344.796 1041.738 C 344.716 1043.088 344.955 1044.606 344.476 1045.885 C 343.996 1047.164 342.797 1048.203 341.039 1048.563 C 339.28 1048.922 336.963 1048.603 335.284 1049.042 C 333.606 1049.482 332.567 1050.68 330.969 1051.599 C 329.37 1052.519 327.212 1053.158 325.973 1054.437 C 324.734 1055.716 324.414 1057.634 324.534 1059.352 C 324.654 1061.071 325.213 1062.589 324.934 1064.028 C 324.654 1065.467 323.535 1066.825 322.576 1067.904 C 321.617 1068.983 320.817 1069.783 320.098 1071.102 C 319.379 1072.42 318.739 1074.259 318.739 1076.617 C 318.739 1078.974 319.379 1081.852 319.499 1083.81 C 319.618 1085.768 319.219 1086.807 319.179 1088.166 C 319.139 1089.525 319.458 1091.203 319.858 1092.522 C 320.258 1093.841 320.737 1094.8 320.498 1095.879 C 320.258 1096.958 319.299 1098.157 318.22 1100.155 C 317.141 1102.153 315.942 1104.951 315.582 1107.069 C 315.223 1109.187 315.702 1110.625 316.542 1112.024 C 317.381 1113.423 318.579 1114.781 317.428 1118.948 C 316.276 1123.114 312.774 1130.087 313.013 1137.554 C 313.252 1145.02 317.231 1152.98 318.973 1159.198 C 320.714 1165.416 320.216 1169.893 321.035 1173.713 C 321.853 1177.533 323.988 1180.697 326.48 1183.574 C 328.972 1186.451 331.822 1189.043 332.599 1191.375 C 333.377 1193.707 332.081 1195.779 330.527 1198.241 C 328.972 1200.702 327.159 1203.552 324.568 1205.236 C 321.977 1206.92 318.608 1207.439 314.204 1209.382 C 309.799 1211.325 304.357 1214.694 301.507 1218.192 C 298.657 1221.689 298.398 1225.317 298.916 1229.462 C 299.434 1233.608 300.73 1238.272 300.471 1241.64 C 300.211 1245.009 298.398 1247.081 297.232 1249.932 C 296.066 1252.782 295.548 1256.409 295.289 1259.13 C 295.03 1261.851 295.03 1263.664 293.346 1264.312 C 291.662 1264.96 288.293 1264.441 286.091 1265.607 C 283.888 1266.773 282.852 1269.624 282.593 1272.474 C 282.333 1275.324 282.852 1278.174 284.277 1280.376 C 285.702 1282.579 288.034 1284.133 288.293 1286.465 C 288.552 1288.797 286.739 1291.907 284.795 1293.72 C 282.852 1295.534 280.779 1296.052 279.095 1298.514 C 277.411 1300.975 276.115 1305.38 276.504 1308.101 C 276.893 1310.821 278.965 1311.858 281.168 1312.246 C 283.37 1312.635 285.702 1312.376 286.35 1313.153 C 286.998 1313.931 285.961 1315.744 284.407 1317.299 C 282.852 1318.853 280.779 1320.149 278.965 1322.221 C 277.151 1324.294 275.597 1327.145 274.69 1329.736 C 273.783 1332.327 273.524 1334.659 272.747 1336.861 C 271.969 1339.064 270.674 1341.136 270.803 1343.339 C 270.933 1345.541 272.487 1347.873 273.135 1350.594 C 273.783 1353.314 273.524 1356.424 273.135 1359.158 C 272.747 1361.893 272.228 1364.254 272.099 1368.025 C 271.969 1371.796 272.229 1376.978 272.617 1382.678 C 273.006 1388.379 273.524 1394.597 274.56 1400.168 C 275.597 1405.739 277.151 1410.662 278.188 1415.715 C 279.224 1420.767 279.743 1425.949 279.872 1429.576 C 280.002 1433.204 279.742 1435.276 278.058 1436.572 C 276.374 1437.867 273.265 1438.386 270.674 1438.386 C 268.083 1438.386 266.01 1437.867 263.808 1439.422 C 261.605 1440.977 259.273 1444.604 259.014 1447.973 C 258.755 1451.341 260.569 1454.451 260.958 1457.301 C 261.346 1460.151 260.31 1462.742 259.662 1466.24 C 259.014 1469.738 258.755 1474.142 258.626 1478.029 C 258.496 1481.915 258.496 1485.284 259.921 1488.652 C 261.346 1492.02 264.196 1495.389 266.657 1497.591 C 269.119 1499.793 271.192 1500.83 273.654 1502.514 C 276.115 1504.198 278.965 1506.53 280.39 1508.862 C 281.815 1511.194 281.815 1513.526 279.872 1515.081 C 277.929 1516.635 274.042 1517.413 271.84 1519.745 C 269.638 1522.076 269.119 1525.963 270.415 1528.554 C 271.71 1531.145 274.82 1532.44 278.059 1533.995 C 281.297 1535.55 284.666 1537.363 286.091 1539.177 C 287.516 1540.991 286.997 1542.804 285.702 1544.488 C 284.406 1546.173 282.334 1547.727 282.463 1550.822 C 282.593 1553.917 284.924 1558.552 284.277 1561.906 C 283.629 1565.26 280.001 1567.333 278.188 1569.795 C 276.374 1572.256 276.374 1575.106 276.245 1578.086 C 276.115 1581.065 275.856 1584.175 277.022 1586.118 C 278.188 1588.061 280.779 1588.839 283.629 1588.709 C 286.479 1588.58 289.589 1587.543 292.698 1587.673 C 295.807 1587.802 298.916 1589.098 302.155 1589.745 C 305.393 1590.393 308.762 1590.393 311.223 1591.43 C 313.685 1592.466 315.239 1594.539 316.665 1596.612 C 318.09 1598.685 319.385 1600.757 318.349 1602.571 C 317.313 1604.385 313.944 1605.939 312.001 1608.142 C 310.058 1610.344 309.539 1613.194 307.726 1614.49 C 305.912 1615.785 302.802 1615.526 299.693 1615.008 C 296.584 1614.49 293.475 1613.712 290.495 1613.842 C 287.516 1613.971 284.665 1615.008 280.908 1615.396 C 277.151 1615.785 272.488 1615.526 269.249 1615.526 C 266.01 1615.526 264.197 1615.785 263.549 1617.34 C 262.901 1618.894 263.419 1621.745 265.621 1623.429 C 267.824 1625.113 271.71 1625.631 275.856 1626.408 C 280.002 1627.186 284.406 1628.222 287.516 1630.252 C 290.625 1632.282 292.438 1635.304 294.77 1637.593 C 297.102 1639.882 299.953 1641.436 301.896 1643.509 C 303.839 1645.582 304.876 1648.173 304.357 1650.246 C 303.839 1652.319 301.766 1653.873 299.823 1655.817 C 297.879 1657.76 296.066 1660.091 294.123 1661.905 C 292.179 1663.719 290.107 1665.014 287.645 1666.569 C 285.184 1668.124 282.333 1669.937 280.908 1672.917 C 279.483 1675.897 279.483 1680.042 280.52 1683.281 C 281.556 1686.52 283.629 1688.852 285.832 1690.795 C 288.034 1692.739 290.366 1694.293 290.107 1695.718 C 289.848 1697.143 286.997 1698.439 283.888 1700.641 C 280.779 1702.843 277.41 1705.953 276.763 1708.155 C 276.115 1710.358 278.188 1711.653 279.743 1714.244 C 281.297 1716.835 282.334 1720.722 282.852 1724.349 C 283.37 1727.976 283.37 1731.345 283.759 1734.713 C 284.147 1738.081 284.925 1741.45 284.147 1744.17 C 283.37 1746.891 281.038 1748.964 278.836 1750.389 C 276.633 1751.814 274.561 1752.592 272.877 1754.333 C 271.192 1756.075 269.897 1758.781 269.378 1761.3 C 268.86 1763.819 269.119 1766.151 268.73 1768.094 C 268.342 1770.038 267.305 1771.592 268.212 1773.536 C 269.119 1775.479 271.97 1777.811 273.006 1779.754 C 274.043 1781.697 273.265 1783.252 271.581 1783.511 C 269.897 1783.77 267.305 1782.733 265.362 1783.511 C 263.419 1784.288 262.123 1786.879 260.828 1789.211 C 259.532 1791.543 258.237 1793.616 255.905 1794.523 C 253.573 1795.43 250.204 1795.17 248.52 1796.207 C 246.836 1797.243 246.836 1799.575 246.707 1801.907 C 246.577 1804.239 246.318 1806.571 244.764 1808.514 C 243.209 1810.458 240.359 1812.012 238.675 1814.992 C 236.991 1817.972 236.472 1822.376 237.509 1826.263 C 238.545 1830.149 241.136 1833.518 243.209 1836.109 C 245.282 1838.7 246.836 1840.513 247.743 1843.104 C 248.65 1845.695 248.909 1849.064 248.909 1851.784 C 248.909 1854.505 248.65 1856.578 246.836 1858.91 C 245.023 1861.242 241.654 1863.833 238.675 1864.869 C 235.695 1865.906 233.104 1865.387 232.197 1866.683 C 231.29 1867.978 232.068 1871.088 232.586 1874.686 C 233.104 1878.285 233.363 1882.373 231.938 1885.324 C 230.513 1888.275 227.403 1890.088 223.646 1892.291 C 219.889 1894.493 215.485 1897.084 211.469 1899.934 C 207.453 1902.784 203.825 1905.894 200.975 1909.262 C 198.125 1912.63 196.052 1916.258 193.072 1920.922 C 190.093 1925.585 186.206 1931.286 183.745 1935.691 C 181.283 1940.095 180.247 1943.205 180.247 1946.314 C 180.247 1949.423 181.283 1952.532 181.024 1954.994 C 180.765 1957.455 179.211 1959.269 177.656 1960.953 C 176.101 1962.638 174.547 1964.192 174.676 1966.654 C 174.806 1969.115 176.619 1972.484 176.619 1976.888 C 176.619 1981.293 174.806 1986.734 176.619 1992.046 C 178.433 1997.357 183.874 2002.539 188.149 2006.296 C 192.424 2010.053 195.534 2012.385 196.441 2014.717 C 197.348 2017.049 196.052 2019.381 196.571 2020.806 C 197.089 2022.231 199.42 2022.749 202.011 2021.972 C 204.602 2021.194 207.453 2019.122 210.432 2017.308 C 213.412 2015.494 216.521 2013.94 219.76 2013.94 C 222.999 2013.94 226.367 2015.494 228.959 2015.235 C 231.55 2014.976 233.363 2012.903 235.695 2012.255 C 238.027 2011.607 240.877 2012.385 243.338 2013.033 C 245.8 2013.68 247.873 2014.199 247.873 2015.753 C 247.873 2017.308 245.8 2019.899 246.189 2022.749 C 246.577 2025.599 249.428 2028.709 250.594 2031.429 C 251.76 2034.15 251.241 2036.482 249.169 2039.073 C 247.096 2041.664 243.468 2044.514 242.691 2046.587 C 241.914 2048.66 243.986 2049.955 246.059 2051.51 C 248.132 2053.065 250.205 2054.878 250.335 2056.563 C 250.464 2058.247 248.65 2059.801 247.743 2061.874 C 246.836 2063.947 246.836 2066.538 245.54 2069.259 C 244.245 2071.979 241.654 2074.829 241.265 2076.513 C 240.877 2078.197 242.69 2078.716 244.504 2080.141 C 246.318 2081.566 248.132 2083.898 250.594 2084.934 C 253.055 2085.971 256.164 2085.711 259.144 2087.698 C 262.123 2089.684 264.974 2093.916 266.01 2097.069 C 267.047 2100.221 266.269 2102.294 267.565 2103.719 C 268.86 2105.144 272.229 2105.921 279.095 2106.439 C 285.961 2106.957 296.325 2107.217 314.203 2106.828 C 332.081 2106.439 357.474 2105.403 373.538 2105.921 C 389.603 2106.439 396.339 2108.512 404.89 2110.844 C 413.44 2113.176 423.804 2115.767 431.966 2118.099 C 440.127 2120.431 446.087 2122.503 452.694 2124.317 C 459.301 2126.131 466.556 2127.685 468.629 2131.572 C 470.702 2135.459 467.592 2141.677 465.908 2158.749 C 464.224 2175.821 463.965 2203.747 463.965 2222.244 C 463.965 2240.741 464.224 2249.809 464.483 2259.396 C 464.742 2268.983 465.002 2279.088 465.261 2286.473 C 465.52 2293.857 465.779 2298.521 468.888 2300.594 C 471.997 2302.667 477.957 2302.148 483.916 2302.019 C 489.875 2301.889 495.835 2302.148 502.571 2302.796 C 509.308 2303.444 516.822 2304.48 523.688 2304.999 C 530.555 2305.517 536.773 2305.517 543.121 2305.906 C 549.469 2306.294 555.947 2307.072 561.129 2307.849 C 566.311 2308.626 570.197 2309.404 574.086 2310.294 C 577.974 2311.185 581.865 2312.188 583.81 2312.69 C 585.755 2313.192 585.755 2313.192 585.755 2313.192 C 585.755 2313.192 585.755 2313.192 588.523 2312.154" id="patagonia&quot; style=&quot;fill: rgb(237, 229, 199); fill-rule: evenodd; fill-opacity: 1;" bx:d="M 585.755 2313.192 U 602.362 2306.964 U 621.045 2302.812 U 633.5 2309.04 U 652.183 2304.888 U 668.79 2288.281 U 641.804 2286.205 U 614.817 2282.053 U 579.527 2267.522 U 560.844 2252.991 U 529.706 2240.535 U 527.63 2228.08 U 502.719 2215.625 U 490.264 2194.866 U 471.581 2190.714 U 467.149 2185.055 U 475.327 2175.969 U 485.322 2174.152 U 481.687 2165.974 U 470.784 2153.254 U 470.784 2146.893 U 479.87 2128.721 U 468.058 2112.366 U 448.977 2090.559 U 440.799 2079.655 U 444.434 2074.204 U 434.439 2044.219 U 430.805 2039.676 U 432.622 2032.407 U 435.348 2016.052 U 438.074 2004.24 U 447.16 1995.154 U 462.606 1985.159 U 478.053 1981.524 U 484.413 1976.981 U 498.042 1975.164 U 512.58 1966.987 U 517.123 1949.723 U 519.849 1931.55 U 524.392 1920.647 U 517.123 1928.825 U 517.123 1920.647 U 523.484 1914.287 U 525.301 1903.383 U 536.204 1896.114 U 550.742 1883.596 U 557.103 1878.144 U 564.372 1875.418 U 570.732 1874.509 U 578.91 1866.332 U 588.904 1859.971 U 595.265 1856.337 U 603.442 1849.068 U 612.529 1843.616 U 620.706 1840.89 U 624.778 1841.406 U 623.018 1837.593 U 621.844 1833.486 U 624.191 1830.553 U 628.591 1831.433 U 632.404 1832.9 U 631.818 1829.673 U 628.004 1827.913 U 626.538 1823.806 U 623.604 1821.166 U 620.671 1820.286 U 622.724 1818.233 U 627.418 1818.526 U 629.764 1812.073 U 633.578 1808.259 U 635.044 1796.526 U 634.751 1786.846 U 632.698 1782.153 U 633.284 1778.046 U 626.244 1773.353 U 619.204 1771.006 U 614.804 1772.473 U 609.524 1771.593 U 606.297 1772.473 U 599.551 1772.473 U 596.324 1770.126 U 586.937 1769.539 U 577.844 1768.953 U 571.391 1765.496 U 565.524 1758.75 U 559.071 1754.35 U 552.031 1747.016 U 546.457 1742.616 U 540.004 1740.269 U 530.324 1729.123 U 527.684 1723.256 U 526.51 1713.283 U 524.164 1707.317 U 525.337 1701.744 U 526.51 1697.344 U 529.737 1695.877 U 529.15 1693.531 U 532.084 1689.717 U 540.004 1684.731 U 540.591 1680.917 U 542.057 1672.704 U 547.631 1668.597 U 552.617 1662.144 U 558.777 1654.811 U 562.297 1647.477 U 570.217 1644.251 U 577.257 1643.957 U 583.711 1644.544 U 587.817 1643.957 U 589.284 1641.611 U 584.591 1640.437 U 586.937 1639.264 U 590.751 1641.317 U 593.391 1640.437 U 590.751 1638.971 U 588.111 1637.797 U 589.577 1636.331 U 593.097 1635.451 U 597.791 1632.516 U 602.484 1632.223 U 607.764 1628.703 U 610.697 1627.823 U 618.031 1628.703 U 623.311 1632.516 U 627.418 1630.463 U 631.524 1631.343 U 636.218 1632.516 U 639.738 1632.516 U 642.964 1630.463 U 644.431 1627.529 U 645.018 1624.889 U 647.658 1623.716 U 645.311 1621.956 U 641.498 1620.783 U 637.684 1618.436 U 636.511 1615.503 U 638.564 1613.743 U 637.978 1610.809 U 642.084 1605.823 U 646.191 1604.356 U 649.124 1601.129 U 652.644 1599.369 U 656.751 1599.956 U 656.751 1597.316 U 659.098 1595.849 U 661.738 1596.729 U 663.204 1594.383 U 659.098 1593.209 U 659.978 1590.569 U 662.618 1589.103 U 665.551 1586.463 U 666.138 1584.116 U 664.084 1582.649 U 663.204 1580.596 U 661.738 1577.662 U 660.354 1576.149 U 661.31 1571.686 U 665.135 1571.049 U 665.135 1567.224 U 666.728 1564.037 U 666.091 1560.85 U 663.86 1560.85 U 662.585 1555.431 U 660.991 1550.65 U 661.629 1548.419 U 658.76 1544.594 U 659.397 1539.176 U 664.497 1533.439 U 669.278 1529.614 U 670.872 1525.152 U 677.884 1521.646 U 676.29 1516.546 U 683.302 1511.128 U 692.545 1505.072 U 698.92 1503.478 U 707.844 1501.247 U 718.044 1496.147 U 720.912 1493.598 U 718.362 1491.366 U 713.9 1492.641 U 709.119 1491.048 U 701.788 1490.091 U 695.414 1484.992 U 689.995 1484.036 U 682.983 1482.123 U 679.159 1480.848 U 678.521 1477.661 U 680.752 1474.792 U 681.39 1470.577 U 685.215 1470.577 U 689.995 1469.94 U 693.82 1466.753 U 696.689 1464.203 U 701.788 1462.609 U 706.569 1461.334 U 712.625 1461.334 U 716.45 1463.565 U 719.319 1464.84 U 719.956 1467.39 U 722.825 1468.665 U 725.374 1470.896 U 723.143 1472.49 U 722.825 1475.677 U 721.868 1479.821 U 724.418 1480.458 U 726.968 1482.689 U 728.881 1486.833 U 732.387 1488.745 U 736.211 1486.833 U 739.08 1486.195 U 744.18 1485.876 U 751.829 1483.964 U 756.61 1483.645 U 758.841 1480.139 U 760.754 1478.864 U 760.116 1475.996 U 763.622 1469.94 U 763.303 1462.29 U 762.347 1455.278 U 763.622 1449.222 U 761.71 1444.76 U 758.204 1442.529 U 754.379 1433.286 U 752.467 1432.011 U 746.729 1433.286 U 743.223 1434.561 U 738.761 1437.429 U 732.068 1439.661 U 728.243 1441.573 U 723.143 1441.254 U 718.681 1441.892 U 718.362 1445.079 U 720.275 1444.76 U 724.1 1445.398 U 729.518 1445.398 U 733.343 1446.354 U 734.299 1448.585 U 732.705 1451.135 U 733.343 1453.366 U 731.112 1455.278 U 726.012 1455.597 U 720.912 1454.96 U 719 1454.322 U 716.769 1456.235 U 712.944 1456.235 U 709.757 1455.916 U 703.063 1456.553 U 704.338 1453.685 U 706.569 1450.497 U 708.482 1448.585 U 712.307 1446.354 U 711.35 1444.442 U 708.482 1443.167 U 704.338 1444.123 U 701.47 1442.21 U 698.282 1441.892 U 695.414 1441.254 U 691.27 1439.023 U 688.083 1438.704 U 682.027 1436.792 U 678.84 1433.286 U 678.202 1429.461 U 675.653 1426.274 U 675.653 1424.043 U 676.609 1419.262 U 679.159 1414.764 U 681.071 1411.576 U 678.521 1407.751 U 677.884 1404.245 U 679.159 1401.377 U 679.796 1398.827 U 680.752 1392.452 U 677.565 1389.903 U 675.334 1387.99 U 674.378 1384.165 U 671.509 1374.922 U 670.234 1368.548 U 669.278 1359.942 U 669.278 1356.966 U 671.509 1352.823 U 672.147 1348.998 U 675.334 1345.811 U 679.796 1343.899 U 685.215 1343.899 U 683.621 1341.986 U 683.35 1340.724 U 680.307 1341.333 U 681.22 1340.267 U 683.655 1339.963 U 685.785 1340.115 U 688.372 1340.724 U 690.96 1341.028 U 689.894 1342.398 U 689.894 1343.768 U 692.025 1344.376 U 693.09 1344.681 U 691.873 1345.594 U 689.438 1345.594 U 688.22 1344.224 U 685.785 1344.833 U 684.111 1346.203 U 685.177 1347.877 U 687.155 1348.79 U 690.351 1347.877 U 692.786 1348.181 U 700.091 1349.703 U 707.982 1351.69 U 712.777 1352.41 U 709.421 1350.491 U 705.104 1347.854 U 704.385 1344.976 U 706.783 1332.748 U 707.742 1326.753 U 705.824 1308.768 U 703.666 1297.259 U 699.35 1274.799 U 696.712 1263.769 U 694.314 1249.143 U 692.876 1225.804 U 690.957 1214.774 U 686.402 1208.779 U 682.565 1204.943 U 672.255 1201.346 U 659.307 1197.03 U 650.435 1193.913 U 638.206 1188.317 U 614.228 1178.247 U 588.332 1166.497 U 564.114 1155.387 U 555.482 1147.954 U 551.166 1142.918 U 547.09 1135.725 U 543.733 1126.265 U 542.294 1117.154 U 542.294 1110.2 U 542.294 1098.451 U 543.493 1086.222 U 546.131 1074.313 U 548.049 1064.722 U 551.406 1058.487 U 555.722 1049.855 U 559.798 1045.539 U 566.272 1041.463 U 574.185 1034.908 U 578.741 1027.715 U 580.899 1020.761 U 582.097 1016.605 U 578.741 1018.523 U 569.869 1019.722 U 558.359 1021.001 U 545.171 1022.44 U 531.983 1023.159 U 507.766 1023.159 U 487.384 1022.2 U 457.892 1020.761 U 419.047 1019.323 U 389.554 1018.124 U 363.898 1015.486 U 361.98 1017.404 U 362.219 1022.68 U 361.26 1027.955 U 358.383 1032.271 U 352.868 1031.312 U 348.552 1034.189 U 345.675 1038.026 U 344.476 1041.569 U 345.195 1046.125 U 341.598 1049.242 U 334.645 1048.283 U 331.528 1051.879 U 325.054 1053.798 U 324.094 1059.552 U 325.773 1064.108 U 322.416 1068.184 U 320.018 1070.582 U 318.1 1076.097 U 320.018 1084.729 U 318.819 1087.846 U 319.778 1092.882 U 321.217 1095.759 U 318.34 1099.356 U 314.743 1107.748 U 316.182 1112.064 U 319.778 1116.14 U 309.272 1137.061 U 321.211 1160.939 U 319.719 1174.37 U 326.122 1183.86 U 334.672 1191.634 U 330.786 1197.852 U 325.345 1206.402 U 315.24 1207.957 U 298.916 1218.062 U 298.139 1228.944 U 302.025 1242.936 U 296.584 1249.154 U 295.03 1260.037 U 295.03 1265.478 U 284.925 1263.923 U 281.815 1272.474 U 283.37 1281.024 U 290.366 1285.688 U 284.925 1295.016 U 278.706 1296.57 U 274.82 1309.785 U 281.038 1312.894 U 288.034 1312.117 U 284.925 1317.558 U 278.706 1321.444 U 274.042 1329.995 U 273.265 1336.991 U 269.378 1343.209 U 274.042 1350.205 U 273.265 1359.533 U 271.71 1366.614 U 272.488 1382.16 U 274.042 1400.816 U 278.706 1415.585 U 280.261 1431.131 U 279.483 1437.349 U 270.156 1438.904 U 263.937 1437.349 U 256.941 1448.232 U 262.383 1457.56 U 259.273 1465.333 U 258.496 1478.547 U 258.496 1488.652 U 267.046 1498.757 U 273.265 1501.866 U 281.815 1508.862 U 281.815 1515.858 U 270.156 1518.19 U 268.601 1529.849 U 277.929 1533.736 U 288.034 1539.177 U 286.479 1544.618 U 280.261 1549.282 U 287.256 1563.187 U 276.374 1569.406 U 276.374 1577.956 U 275.597 1587.284 U 283.37 1589.616 U 292.698 1586.507 U 302.025 1590.393 U 312.13 1590.393 U 316.794 1596.612 U 320.681 1602.83 U 310.576 1607.494 U 309.021 1616.044 U 299.693 1615.267 U 290.366 1612.935 U 281.815 1616.044 U 267.824 1615.267 U 262.383 1616.044 U 263.937 1624.595 U 275.597 1626.149 U 288.811 1629.259 U 294.252 1638.327 U 302.803 1642.991 U 305.912 1650.764 U 299.693 1655.428 U 294.252 1662.423 U 288.034 1666.31 U 279.483 1671.751 U 279.483 1684.188 U 285.702 1691.184 U 292.698 1695.848 U 284.147 1699.734 U 274.042 1709.062 U 280.261 1712.949 U 283.37 1724.608 U 283.37 1734.713 U 285.702 1744.818 U 278.706 1751.037 U 272.488 1753.369 U 268.601 1761.487 U 269.378 1768.483 U 266.269 1773.147 U 274.82 1780.143 U 272.488 1784.806 U 264.714 1781.697 U 260.828 1789.47 U 256.941 1795.689 U 246.836 1794.911 U 246.836 1801.907 U 246.059 1808.903 U 237.509 1813.567 U 235.954 1826.781 U 243.727 1836.886 U 248.391 1842.327 U 249.168 1852.432 U 248.391 1858.651 U 238.286 1866.424 U 230.513 1864.869 U 232.845 1874.197 U 233.622 1886.461 U 224.294 1891.902 U 211.08 1899.675 U 200.198 1909.003 U 193.979 1919.885 U 182.32 1936.986 U 179.21 1946.314 U 182.32 1955.641 U 177.656 1961.083 U 172.992 1965.747 U 178.433 1975.852 U 172.992 1992.175 U 189.315 2007.721 U 198.643 2014.717 U 194.757 2021.713 U 201.752 2023.267 U 210.303 2017.049 U 219.63 2012.385 U 229.736 2017.049 U 235.177 2010.83 U 243.727 2013.162 U 249.946 2014.717 U 243.727 2022.49 U 252.278 2031.818 U 250.723 2038.814 U 239.841 2047.364 U 246.059 2051.251 U 252.278 2056.692 U 246.836 2061.356 U 246.836 2069.129 U 239.063 2077.679 U 244.504 2079.234 U 249.946 2086.23 U 259.273 2085.452 U 267.824 2098.148 U 265.492 2104.367 U 275.597 2106.698 U 306.689 2107.476 U 382.866 2104.366 U 403.076 2110.585 U 434.168 2118.358 U 452.046 2124.576 U 473.811 2129.24 U 464.483 2147.896 U 463.706 2231.672 U 464.483 2258.878 U 465.261 2289.193 U 466.038 2303.185 U 483.916 2301.63 U 501.794 2302.407 U 524.336 2305.517 U 542.992 2305.517 U 562.424 2307.849 U 574.084 2310.181 U 585.755 2313.192 U 585.755 2313.192 Z 1@2a6a2825"/>
</svg>